<svg version="1.1" id="Layer_1" xmlns="http://www.w3.org/2000/svg" xmlns:xlink="http://www.w3.org/1999/xlink" x="0px" y="0px"
	 width="100%" viewBox="0 0 786 271" enable-background="new 0 0 786 271" xml:space="preserve">
<path fill="#FDFEFF" opacity="1.000000" stroke="none" 
	d="
M345.695312,1.398039 
	C491.444824,1.000000 636.889648,1.024582 782.334351,0.877678 
	C786.564148,0.873405 787.106934,1.949804 787.101074,5.831027 
	C786.969421,93.131050 786.974060,180.431351 787.093628,267.731415 
	C787.098450,271.282166 786.431946,272.104218 782.771667,272.101227 
	C637.493591,271.982300 492.215454,272.000000 346.468658,272.000000 
	C343.751434,269.264557 344.390930,265.978912 344.389160,262.876923 
	C344.352570,198.773636 344.362396,134.670334 344.362274,70.567039 
	C344.362213,50.253788 344.347870,29.940516 344.378906,9.627305 
	C344.382935,6.987311 344.040375,4.274260 345.695312,1.398039 
z"/>
<path fill="#0C1830" opacity="1.000000" stroke="none" 
	d="
M345.532166,1.000000 
	C345.997925,91.021431 345.995850,181.042862 345.996887,271.532166 
	C232.551498,272.000000 119.102943,271.968018 5.654660,272.124268 
	C1.401896,272.130157 0.894834,271.017426 0.900554,267.158661 
	C1.029941,179.865143 1.025228,92.571358 0.908578,5.277793 
	C0.903868,1.753210 1.532154,0.892180 5.218589,0.896311 
	C118.500389,1.023239 231.782364,1.000000 345.532166,1.000000 
z"/>
<path fill="#43BECD" opacity="1.000000" stroke="none" 
	d="
M424.824341,117.287651 
	C424.824982,133.569717 424.787903,149.387558 424.857849,165.204910 
	C424.871033,168.183105 424.647003,170.590866 420.776184,170.464279 
	C417.169403,170.346359 417.084351,167.960144 417.099091,165.262238 
	C417.152710,155.438934 417.153564,145.614899 417.084290,135.791779 
	C417.073456,134.255142 417.759338,132.474106 415.972809,130.972519 
	C413.583221,133.036652 412.976776,136.043549 411.828278,138.643158 
	C407.863281,147.618027 404.147583,156.702774 400.226227,165.697403 
	C399.419647,167.547516 399.061707,170.082855 396.075043,169.947617 
	C393.332916,169.823456 393.258728,167.389664 392.510803,165.701843 
	C387.869781,155.228073 383.347778,144.701630 378.752747,134.207367 
	C378.174927,132.887665 377.847870,131.374130 376.306488,130.358002 
	C375.093048,131.375977 375.576782,132.762527 375.572388,133.934189 
	C375.534393,144.090668 375.488342,154.247955 375.588623,164.403595 
	C375.621399,167.722702 375.407715,170.545685 371.071350,170.446167 
	C367.032349,170.353470 367.392761,167.410690 367.391968,164.724075 
	C367.387421,149.239410 367.365082,133.754639 367.420227,118.270164 
	C367.427307,116.278587 366.548920,113.299797 369.816833,113.223564 
	C372.970245,113.150017 376.797485,111.359810 378.758301,116.152657 
	C383.530792,127.818214 388.615692,139.355728 393.527527,150.964813 
	C394.165863,152.473480 394.291077,154.737350 396.064514,154.905060 
	C398.393646,155.125305 398.472778,152.484207 399.138550,150.975464 
	C403.968842,140.029297 408.825836,129.088089 413.289398,117.990471 
	C414.955505,113.848099 417.392365,112.557571 421.619934,112.966927 
	C424.359467,113.232208 425.029572,114.478905 424.824341,117.287651 
z"/>
<path fill="#46C0CE" opacity="1.000000" stroke="none" 
	d="
M700.232117,170.416779 
	C696.743286,166.887558 693.676514,168.195297 689.777771,169.560089 
	C681.684265,172.393341 674.380981,168.501160 672.544983,161.387268 
	C670.444519,153.248856 674.958740,146.654633 683.960754,144.753662 
	C686.558716,144.205048 689.163818,143.678391 691.782837,143.245438 
	C693.787598,142.914032 696.491333,143.722519 696.377869,140.257263 
	C696.278870,137.235672 694.912048,135.068939 691.726013,134.750732 
	C687.900452,134.368637 684.121521,134.402039 680.538818,136.351044 
	C679.365662,136.989243 677.466431,139.043350 676.420105,136.523621 
	C675.637512,134.638962 675.325134,132.015594 677.631836,130.658020 
	C683.741638,127.062149 690.501282,126.914749 696.875977,129.041855 
	C703.097656,131.117905 704.415771,137.068130 704.579529,142.939667 
	C704.788269,150.428833 704.552551,157.929443 704.671448,165.422531 
	C704.718872,168.413788 703.808228,170.275146 700.232117,170.416779 
z"/>
<path fill="#47C0CE" opacity="1.000000" stroke="none" 
	d="
M531.241272,139.382095 
	C536.748535,126.311691 551.322754,125.559784 558.411438,130.892075 
	C562.819458,134.207886 565.918640,143.264374 564.519958,148.504517 
	C563.869385,150.941956 562.083374,150.881195 560.224304,150.883774 
	C554.226807,150.892059 548.228210,150.821762 542.232178,150.916779 
	C537.801392,150.987015 536.668396,152.838531 538.294067,156.994461 
	C540.624390,162.951782 548.604126,165.265503 555.968811,162.410446 
	C557.903259,161.660522 560.527100,158.097107 562.173340,161.868103 
	C563.734558,165.444458 560.916321,167.748734 557.529541,168.750320 
	C550.128906,170.938965 542.696899,171.914749 536.228149,166.459717 
	C529.176758,160.513412 528.656738,152.430786 529.791077,144.030960 
	C529.988403,142.569473 530.668030,141.173111 531.241272,139.382095 
z"/>
<path fill="#3ABBCB" opacity="1.000000" stroke="none" 
	d="
M482.309601,146.982422 
	C482.487183,147.719223 482.565430,148.086563 482.687927,148.732178 
	C483.777313,151.204117 483.658356,153.901428 485.686096,155.883728 
	C488.168427,154.689423 488.202240,152.108337 488.797607,150.099976 
	C490.481354,144.420105 492.189667,138.742416 493.711212,133.013794 
	C494.427673,130.316330 495.409576,127.888176 498.874084,128.069901 
	C502.438721,128.256866 502.870270,130.949585 503.416718,133.974274 
	C503.596222,134.687866 503.658264,135.064331 503.758972,135.724380 
	C505.134827,141.443176 507.017731,146.738541 508.001373,152.262741 
	C508.294830,153.910934 508.407288,156.240463 510.142883,156.336609 
	C512.219666,156.451706 511.916962,153.909561 512.327637,152.428085 
	C514.442017,144.800797 516.171265,137.069977 518.645386,129.183762 
	C518.830017,128.878967 518.899048,128.900833 518.889404,128.865936 
	C520.585632,127.893837 522.412048,127.512878 523.946533,128.899200 
	C525.617554,130.408920 524.574097,132.183960 524.059021,133.937210 
	C521.048279,144.185791 518.474182,154.557083 515.388123,164.786697 
	C513.809875,170.018158 513.484985,170.307709 507.323090,169.287094 
	C506.960999,169.045746 506.999084,169.001831 506.976746,169.020111 
	C503.127502,162.108734 502.942505,154.064117 500.176422,146.800644 
	C499.645172,145.405701 499.435486,143.923813 498.015747,142.728165 
	C494.871063,146.295349 494.791077,151.009827 493.345856,155.140045 
	C492.092072,158.723251 491.142883,162.432495 490.064148,166.087357 
	C489.370972,168.435898 488.267426,169.921982 485.626190,169.950562 
	C482.822449,169.980896 481.465271,168.496704 480.682526,165.959320 
	C477.601288,155.970932 474.863220,145.885132 472.014557,135.830795 
	C471.834656,135.195801 471.693634,134.549469 471.497711,133.913376 
	C469.761017,128.274918 470.294922,127.691299 476.755676,128.672272 
	C477.089417,128.879974 477.327393,129.303528 477.439758,129.518890 
	C479.822662,135.162384 480.403229,141.056900 482.309601,146.982422 
z"/>
<path fill="#47C0CE" opacity="1.000000" stroke="none" 
	d="
M746.122437,139.950378 
	C747.318420,132.482300 751.908264,128.313126 758.917603,128.085785 
	C761.743896,127.994110 764.588196,128.041580 767.407288,128.252701 
	C770.373413,128.474838 771.853760,130.182465 771.719177,133.246872 
	C771.595886,136.054382 770.706665,137.514328 767.720825,135.832993 
	C764.620300,134.087097 761.260742,134.517700 757.958008,134.793350 
	C755.971497,134.959167 754.532532,136.116486 754.020691,138.098404 
	C753.564758,139.863907 754.247864,141.297546 755.518005,142.596039 
	C757.973328,145.106323 761.349854,145.673523 764.364380,147.011292 
	C772.241333,150.506851 775.002869,156.524414 771.912231,163.277039 
	C770.567627,166.214905 768.189331,167.885803 765.302307,168.994186 
	C760.126465,170.981186 754.870483,170.779449 749.609253,169.442566 
	C746.315247,168.605545 745.404907,166.077682 746.293457,163.244781 
	C747.305054,160.019638 749.488281,162.282990 751.190125,162.747467 
	C754.136230,163.551498 757.141357,163.410843 760.130249,163.312332 
	C762.566406,163.232010 764.871094,162.698166 765.327820,159.717743 
	C765.774719,156.802002 764.275574,154.947495 761.781494,153.789719 
	C759.214905,152.598312 756.617554,151.470413 754.009766,150.371399 
	C749.522827,148.480392 746.608276,145.380386 746.122437,139.950378 
z"/>
<path fill="#43BECD" opacity="1.000000" stroke="none" 
	d="
M459.407013,136.048340 
	C459.957428,134.389847 460.414520,133.045898 460.927673,131.350739 
	C461.018982,130.406128 461.205109,129.869003 461.771484,129.185028 
	C461.963379,128.967926 462.347839,128.737488 462.538208,128.619171 
	C465.137665,128.275864 468.214722,126.581062 468.199341,131.520294 
	C467.840027,132.324631 467.745819,132.716263 467.572388,133.399384 
	C467.480743,134.509888 466.878693,135.031296 466.391724,135.925690 
	C466.108826,136.820221 465.931396,137.453079 465.671509,138.404114 
	C464.634308,140.557785 464.246002,142.600082 463.257202,144.766678 
	C462.938721,145.406921 462.841675,145.784500 462.668549,146.444382 
	C461.839447,148.316391 461.370819,150.023712 460.436279,151.894730 
	C459.905334,153.242065 459.516571,154.291809 459.061218,155.670776 
	C458.973572,156.593369 458.801483,157.134827 458.255493,157.833939 
	C456.917694,161.351013 455.765045,164.645523 454.497925,168.300766 
	C454.484100,169.511948 453.855713,170.020584 453.303284,170.873856 
	C452.995209,171.757874 452.841034,172.405029 452.600311,173.373230 
	C451.849091,175.315170 451.442596,177.044617 450.264404,178.791168 
	C449.391174,180.114639 448.730133,181.185760 447.942078,182.548676 
	C447.208984,183.922134 446.250580,184.683273 445.120667,185.684631 
	C444.376312,186.104630 443.887512,186.360855 443.204956,186.815002 
	C442.387299,187.720367 441.558685,187.967331 440.335449,188.113434 
	C432.405579,188.231415 431.950287,187.800461 434.346741,182.245300 
	C436.829224,182.160660 438.849792,181.901688 440.943848,180.485611 
	C442.271362,179.809280 442.843933,178.941360 443.257202,177.563644 
	C443.506439,176.482468 444.101898,175.965057 444.558838,175.051544 
	C445.038147,174.056091 445.433258,173.329926 445.901428,172.301666 
	C446.567627,168.458954 444.845795,165.460236 443.611694,162.002243 
	C443.338684,161.039536 443.163605,160.399017 442.920471,159.432877 
	C442.164185,158.299408 442.022552,157.244690 441.485962,156.031387 
	C441.298553,155.352829 441.218719,154.962646 441.076233,154.280365 
	C439.357330,150.692001 438.248718,147.180008 436.893158,143.372559 
	C436.589539,142.223877 436.366272,141.436264 436.019440,140.365341 
	C433.961823,137.232040 433.557343,133.757782 432.043335,130.361374 
	C432.010529,129.999786 431.964630,129.518570 432.001587,129.279724 
	C433.993286,127.559578 436.133026,127.910561 438.695801,128.637512 
	C439.428589,129.645401 439.753296,130.425583 440.166931,131.515823 
	C442.075958,135.245636 442.765625,139.082870 444.356628,142.971191 
	C444.679260,144.246979 444.890533,145.179947 445.202759,146.457489 
	C446.143555,148.357529 446.617371,150.061890 447.379181,152.003006 
	C447.670258,153.257324 447.872009,154.194061 448.159393,155.480606 
	C448.989075,157.292923 449.993500,158.629517 450.382172,160.260681 
	C451.142670,158.687958 451.931824,157.129135 452.625519,155.157104 
	C452.975708,154.222214 453.154816,153.585876 453.454224,152.641693 
	C454.756317,149.003479 455.638214,145.560532 457.423950,142.079102 
	C457.623505,141.359680 457.699860,140.971878 457.798950,140.288269 
	C458.025818,138.662064 458.865753,137.593018 459.407013,136.048340 
z"/>
<path fill="#48C0CE" opacity="1.000000" stroke="none" 
	d="
M729.248291,162.905609 
	C732.959473,158.774124 732.766907,156.418289 728.549316,154.061050 
	C725.802429,152.525803 722.722839,151.597977 719.905701,150.173859 
	C714.063904,147.220779 711.808167,142.608612 713.106323,136.696228 
	C714.107422,132.136612 719.075562,128.389191 724.755005,128.108353 
	C727.578064,127.968742 730.421143,128.045212 733.246643,128.190094 
	C736.504761,128.357162 737.974487,130.183929 737.801147,133.457138 
	C737.660950,136.104797 736.834229,137.197357 734.076660,135.785126 
	C730.985962,134.202316 727.599060,134.305023 724.291748,134.864349 
	C722.278503,135.204803 720.435120,136.171921 719.985107,138.481415 
	C719.576050,140.580643 720.783264,142.086105 722.361267,143.079163 
	C724.172119,144.218796 726.208618,145.000778 728.150513,145.931061 
	C729.802490,146.722473 731.588318,147.312973 733.088684,148.327072 
	C736.928650,150.922485 740.171692,153.955383 739.563782,159.261795 
	C739.033936,163.886551 735.477051,167.936005 730.458374,169.447678 
	C725.872925,170.828873 721.238220,170.562988 716.629639,169.662277 
	C713.615479,169.073181 712.744873,166.927872 712.926941,164.069229 
	C713.068054,161.853287 713.929016,160.920258 716.096191,161.957520 
	C720.218262,163.930405 724.535156,163.449310 729.248291,162.905609 
z"/>
<path fill="#4AC1CF" opacity="1.000000" stroke="none" 
	d="
M634.379761,170.459686 
	C623.038147,168.300613 617.445312,162.396179 616.375305,151.847824 
	C615.385803,142.094009 620.565186,132.811050 629.179565,129.186859 
	C634.122803,127.107185 639.343323,127.860428 644.417114,128.436569 
	C647.156067,128.747574 648.092834,131.138397 647.512817,133.760788 
	C646.822632,136.881577 644.697876,135.565964 642.780273,135.184937 
	C637.227234,134.081558 631.696716,133.739685 627.681335,138.754257 
	C623.411438,144.086746 623.655762,150.368393 625.612549,156.297791 
	C627.681702,162.567474 634.272583,164.805115 642.439087,162.838562 
	C644.321350,162.385315 646.490112,160.965439 647.404846,163.866501 
	C648.279907,166.642136 646.521790,168.215866 644.080383,169.108490 
	C641.081421,170.204987 637.958984,170.524368 634.379761,170.459686 
z"/>
<path fill="#44BFCD" opacity="1.000000" stroke="none" 
	d="
M663.651123,114.408539 
	C663.652283,131.508560 663.603455,148.151108 663.694031,164.792892 
	C663.712219,168.130203 663.112427,170.334000 659.087280,170.074707 
	C656.634827,169.916718 655.412476,168.990891 655.415527,166.457611 
	C655.436890,148.816864 655.443604,131.176010 655.403992,113.535324 
	C655.398315,111.018021 656.445801,109.958878 658.971436,109.891678 
	C661.901367,109.813728 663.967590,110.426971 663.651123,114.408539 
z"/>
<path fill="#5CC7D4" opacity="1.000000" stroke="none" 
	d="
M596.786621,128.860229 
	C603.579529,128.261841 606.888611,132.710220 608.711365,138.001526 
	C611.689331,146.646317 611.374512,155.353027 606.197571,163.260773 
	C601.488892,170.453186 592.115784,172.748611 584.645020,168.583878 
	C582.585876,167.435959 581.400269,166.746658 579.920776,169.255112 
	C578.844788,171.079437 576.780884,170.781189 574.937561,170.257370 
	C572.783508,169.645233 572.283752,168.051193 572.286560,166.027817 
	C572.310852,148.566940 572.296509,131.106018 572.309082,113.645126 
	C572.310181,112.130341 572.339172,110.568954 574.679077,110.166512 
	C576.946289,112.312325 576.467468,114.914551 576.477234,117.356728 
	C576.533569,131.498566 576.459778,145.641022 576.567322,159.782272 
	C576.578369,161.241379 575.351379,163.430527 578.352112,163.906891 
	C579.891541,162.947723 581.202759,162.791580 582.959778,163.135040 
	C592.299805,171.210556 603.643311,165.063095 606.093689,155.409821 
	C607.398315,150.270386 607.406494,145.264847 605.834351,140.251053 
	C604.716309,136.685455 602.998535,133.548737 599.340393,131.902939 
	C598.146484,131.365784 596.924866,130.730789 596.786621,128.860229 
z"/>
<path fill="#26B4C5" opacity="1.000000" stroke="none" 
	d="
M579.261047,163.676376 
	C578.750244,165.504364 579.633667,167.809799 577.101685,167.852737 
	C574.175659,167.902344 575.008301,165.378006 575.005005,163.760010 
	C574.969238,146.211960 575.009216,128.663742 575.048218,110.663589 
	C576.095032,110.174507 577.122070,110.137413 578.520691,110.211136 
	C580.596191,111.952133 579.848816,114.068024 579.981934,115.993073 
	C580.447876,122.730064 578.984131,129.560867 581.587952,136.214767 
	C582.810974,139.340225 579.323059,142.486328 580.817139,146.312927 
	C581.343079,148.420731 581.351318,150.132523 581.087280,152.269989 
	C580.370789,154.541168 580.308838,156.463715 580.362366,158.818298 
	C580.332886,160.654907 580.339966,162.080750 579.261047,163.676376 
z"/>
<path fill="#A5E0E7" opacity="1.000000" stroke="none" 
	d="
M468.303375,132.003448 
	C468.330872,128.352722 465.676636,128.906494 463.150696,128.607605 
	C467.405975,126.580391 472.138733,126.952713 476.990479,128.519623 
	C471.052368,128.828430 471.036011,128.832993 472.616638,134.505066 
	C475.456970,144.697540 478.298584,154.889771 481.188873,165.068130 
	C481.790436,167.186539 482.581665,169.115967 485.432434,169.136963 
	C488.368164,169.158569 488.893036,167.140701 489.516388,165.016983 
	C491.661682,157.708023 493.855957,150.413345 495.972839,143.096237 
	C496.343903,141.813797 496.594635,140.527283 498.443451,138.906357 
	C502.406555,148.621490 504.073792,158.635712 506.973480,168.640335 
	C502.583344,166.661346 503.489258,161.872955 502.311890,158.171768 
	C500.968262,153.948105 500.267822,149.508072 498.366577,145.033310 
	C494.884460,147.639145 495.781342,151.795380 494.315399,154.924606 
	C492.587341,158.613327 491.924683,162.805237 490.839905,166.789825 
	C490.105438,169.487732 488.729584,171.076889 485.592499,170.995682 
	C482.506134,170.915756 480.766266,169.919647 479.903900,166.718399 
	C477.100098,156.310852 474.015503,145.978928 471.032745,135.619705 
	C470.622192,134.193954 470.356659,132.658035 468.303375,132.003448 
z"/>
<path fill="#28B5C6" opacity="1.000000" stroke="none" 
	d="
M596.496704,128.387726 
	C601.576294,131.550018 606.128906,134.503662 607.439026,140.654190 
	C609.410339,149.908661 608.827576,158.358047 601.362915,165.155579 
	C596.705505,169.396683 587.842773,169.142059 584.316284,164.160553 
	C587.132324,163.041626 589.308228,165.198715 591.874207,164.590439 
	C596.590637,163.472351 600.463501,161.584412 602.181458,156.391510 
	C604.574768,149.157166 604.816101,142.455795 599.043457,136.283722 
	C598.494873,136.019989 598.279541,135.903351 597.754150,135.587341 
	C595.453186,133.725449 593.151001,133.178711 590.606262,133.443024 
	C588.898010,133.620438 586.535522,134.667068 585.858521,132.506546 
	C585.081726,130.027405 587.687439,129.570267 589.770508,128.701935 
	C592.107361,128.471954 594.094666,128.368240 596.496704,128.387726 
z"/>
<path fill="#5CC7D4" opacity="1.000000" stroke="none" 
	d="
M589.777100,128.413513 
	C589.644104,130.521011 586.947876,130.151306 586.291504,132.512894 
	C590.267822,132.839310 594.672363,130.476151 597.943604,134.647964 
	C596.741760,136.239548 595.237244,135.703735 593.786133,135.657425 
	C587.031006,135.441925 584.598694,137.159500 582.554321,143.539413 
	C582.111938,144.920013 582.063232,146.511520 580.161194,147.144073 
	C578.760010,146.108978 578.818909,144.859909 579.026123,143.753357 
	C581.060303,132.892517 577.686462,122.058296 578.903442,110.765366 
	C581.685913,110.429703 580.720642,112.606171 580.755005,114.002129 
	C580.872437,118.771996 580.873413,123.547829 580.781189,128.318726 
	C580.715881,131.699249 581.541260,132.625992 584.594666,130.358566 
	C585.960693,129.344177 587.382751,127.921730 589.777100,128.413513 
z"/>
<path fill="#A5E0E7" opacity="1.000000" stroke="none" 
	d="
M518.480103,128.970978 
	C517.456970,138.859848 513.999634,148.349777 511.911865,158.164398 
	C511.419281,160.480072 510.059937,159.699707 509.285583,158.375427 
	C507.944153,156.081436 507.477600,153.471603 506.928284,150.870407 
	C505.910767,146.052124 504.580170,141.299957 503.588806,136.264099 
	C507.262268,140.780121 507.189728,146.696350 508.956818,152.017944 
	C509.207916,152.774109 509.221802,153.609070 509.845551,154.528885 
	C514.028503,146.492386 514.128845,137.115524 518.480103,128.970978 
z"/>
<path fill="#A5E0E7" opacity="1.000000" stroke="none" 
	d="
M507.026611,169.424072 
	C511.868713,170.020569 513.989136,167.860382 515.136353,163.062592 
	C517.488098,153.227173 520.352539,143.505646 523.290710,133.823654 
	C524.407837,130.142593 524.016785,128.326385 519.311646,128.868195 
	C520.112366,125.937248 522.526123,126.899162 524.372192,127.540840 
	C526.618896,128.321808 526.109619,130.537170 525.632690,132.272430 
	C522.407349,144.008026 519.109619,155.723785 515.818726,167.441284 
	C514.784302,171.124420 511.941467,171.879959 507.026611,169.424072 
z"/>
<path fill="#A5E0E7" opacity="1.000000" stroke="none" 
	d="
M503.683533,133.913971 
	C501.204773,132.947769 502.436371,127.606941 497.828094,128.938187 
	C494.044250,130.031281 494.501160,133.863297 493.622742,136.697983 
	C491.613953,143.180237 489.810822,149.726257 487.926910,156.247177 
	C487.611328,157.339432 487.527130,158.740173 485.987000,158.701370 
	C484.557434,158.665359 484.218567,157.395721 483.937225,156.251678 
	C483.387115,154.014954 482.868927,151.770370 482.534851,149.269745 
	C484.925201,149.758133 484.095734,152.629669 486.526520,154.036987 
	C488.706909,146.758850 491.019501,139.757263 492.848602,132.631531 
	C493.766205,129.056839 495.234497,126.741592 499.168365,127.152115 
	C502.917816,127.543396 504.102539,130.055649 503.683533,133.913971 
z"/>
<path fill="#A5E0E7" opacity="1.000000" stroke="none" 
	d="
M482.577332,146.949875 
	C478.793030,142.314133 479.362366,136.002823 477.416321,130.116257 
	C481.136230,134.766449 481.437805,140.812592 482.577332,146.949875 
z"/>
<path fill="#A5E0E7" opacity="1.000000" stroke="none" 
	d="
M436.597076,143.249161 
	C439.230194,145.997101 439.980225,149.676529 441.036865,153.603485 
	C437.655670,151.287857 437.521820,147.165344 436.597076,143.249161 
z"/>
<path fill="#A5E0E7" opacity="1.000000" stroke="none" 
	d="
M452.511566,154.941223 
	C453.335144,157.539413 451.787445,159.406876 450.496338,161.586990 
	C448.718628,160.102524 448.671448,158.214401 448.181488,156.194397 
	C449.971893,157.534653 451.227692,156.913544 452.511566,154.941223 
z"/>
<path fill="#A5E0E7" opacity="1.000000" stroke="none" 
	d="
M443.394073,162.066086 
	C445.701263,164.596283 447.628784,167.592438 446.256439,171.758057 
	C445.074402,168.817078 444.174377,165.634598 443.394073,162.066086 
z"/>
<path fill="#A5E0E7" opacity="1.000000" stroke="none" 
	d="
M444.597473,142.936096 
	C441.649506,140.296494 441.591492,136.164505 440.198181,132.210388 
	C443.281128,134.763885 443.523010,138.861435 444.597473,142.936096 
z"/>
<path fill="#A5E0E7" opacity="1.000000" stroke="none" 
	d="
M431.762268,130.203140 
	C434.502594,132.609299 434.658600,136.203873 435.918945,139.702545 
	C432.789612,137.602142 432.573212,133.813461 431.762268,130.203140 
z"/>
<path fill="#A5E0E7" opacity="1.000000" stroke="none" 
	d="
M457.245850,141.894470 
	C457.282227,145.450485 455.593262,148.678726 453.854614,152.158798 
	C453.424744,148.486176 454.854706,145.155792 457.245850,141.894470 
z"/>
<path fill="#A5E0E7" opacity="1.000000" stroke="none" 
	d="
M438.998657,128.506866 
	C437.041382,128.911850 434.978851,128.958496 432.477478,129.023010 
	C433.930298,125.722656 436.385712,126.734695 438.998657,128.506866 
z"/>
<path fill="#A5E0E7" opacity="1.000000" stroke="none" 
	d="
M440.883484,180.282745 
	C439.993530,182.921707 437.830688,183.147797 435.042542,182.310852 
	C436.364349,180.522293 438.635071,181.008362 440.883484,180.282745 
z"/>
<path fill="#A5E0E7" opacity="1.000000" stroke="none" 
	d="
M463.386322,144.954712 
	C462.955444,142.790649 463.657990,140.805176 465.284363,138.871124 
	C465.587830,140.960205 465.360992,143.130280 463.386322,144.954712 
z"/>
<path fill="#A5E0E7" opacity="1.000000" stroke="none" 
	d="
M460.610046,152.068771 
	C460.136261,150.231293 460.775787,148.532501 462.293152,146.875336 
	C462.938171,148.753967 462.159241,150.422134 460.610046,152.068771 
z"/>
<path fill="#A5E0E7" opacity="1.000000" stroke="none" 
	d="
M447.596436,151.965698 
	C445.570190,151.262833 445.771271,149.194107 445.229919,147.160248 
	C447.464081,147.723648 447.174316,149.878586 447.596436,151.965698 
z"/>
<path fill="#A5E0E7" opacity="1.000000" stroke="none" 
	d="
M450.397522,178.975830 
	C450.227325,177.193161 450.756042,175.474701 452.223877,173.846344 
	C452.901001,175.764252 452.213928,177.469345 450.397522,178.975830 
z"/>
<path fill="#A5E0E7" opacity="1.000000" stroke="none" 
	d="
M459.236877,135.867188 
	C460.146057,137.309586 459.264496,138.468185 458.127441,139.816498 
	C456.468842,138.160721 458.129913,137.198578 459.236877,135.867188 
z"/>
<path fill="#A5E0E7" opacity="1.000000" stroke="none" 
	d="
M445.219727,185.874634 
	C445.067078,184.429184 445.915619,183.531113 447.499512,182.905899 
	C448.017761,184.555847 447.173676,185.504852 445.219727,185.874634 
z"/>
<path fill="#A5E0E7" opacity="1.000000" stroke="none" 
	d="
M440.216492,188.399521 
	C440.444336,187.131744 441.375031,187.036774 442.661865,186.983871 
	C442.839691,188.658539 441.954285,189.161591 440.216492,188.399521 
z"/>
<path fill="#A5E0E7" opacity="1.000000" stroke="none" 
	d="
M441.262177,156.092041 
	C442.644501,156.199234 443.009705,157.194153 442.917053,158.765732 
	C441.372681,158.801575 441.011414,157.780014 441.262177,156.092041 
z"/>
<path fill="#A5E0E7" opacity="1.000000" stroke="none" 
	d="
M458.350220,158.017090 
	C458.199158,157.473877 458.327911,156.891220 458.725647,156.154282 
	C460.106049,156.886490 459.655640,157.485092 458.350220,158.017090 
z"/>
<path fill="#A5E0E7" opacity="1.000000" stroke="none" 
	d="
M466.596497,136.079315 
	C465.975403,135.290390 466.215302,134.559036 467.222076,133.833801 
	C467.935181,134.614944 467.818298,135.395279 466.596497,136.079315 
z"/>
<path fill="#A5E0E7" opacity="1.000000" stroke="none" 
	d="
M461.678101,128.986206 
	C461.810425,129.539185 461.657471,130.110443 461.244141,130.840637 
	C459.891602,130.082626 460.348541,129.483337 461.678101,128.986206 
z"/>
<path fill="#A5E0E7" opacity="1.000000" stroke="none" 
	d="
M444.349640,174.905548 
	C444.945435,175.692596 444.769104,176.454941 443.660522,177.140076 
	C443.000214,176.332962 443.248688,175.594894 444.349640,174.905548 
z"/>
<path fill="#A5E0E7" opacity="1.000000" stroke="none" 
	d="
M453.474762,171.023178 
	C452.942566,170.242920 453.190704,169.528976 454.129639,168.812180 
	C454.904694,169.603119 454.787689,170.381027 453.474762,171.023178 
z"/>
<path fill="#74BF93" opacity="1.000000" stroke="none" 
	d="
M40.491833,169.146912 
	C40.123711,167.979004 39.892097,167.068970 39.612328,165.809296 
	C39.632080,164.634613 38.986320,164.092667 38.644234,163.124557 
	C38.410469,162.447510 38.276081,162.036789 38.116024,161.301910 
	C38.024212,160.395325 37.831543,159.864136 37.267403,159.189178 
	C36.867146,158.744492 36.725101,158.480026 36.701881,157.954544 
	C35.301102,154.324936 36.456703,150.825928 36.450108,147.379486 
	C36.431686,137.752853 36.257172,128.125092 36.671204,118.060638 
	C39.035358,110.982559 41.064926,104.294380 43.422184,97.723747 
	C44.484135,94.763687 43.796574,92.684349 41.745811,90.538635 
	C38.068127,86.690643 34.704563,82.535393 30.935501,78.784081 
	C28.093287,75.955238 27.575527,73.450012 30.118393,70.127274 
	C33.958969,65.108810 37.654476,59.965061 41.145878,54.698380 
	C43.729660,50.800812 46.580334,50.206718 50.569782,53.150177 
	C51.575993,53.674225 52.182507,54.149620 53.110775,54.614651 
	C53.744965,54.758171 54.094936,54.854195 54.680935,55.087570 
	C55.579567,55.639515 56.179050,56.144753 57.130005,56.596600 
	C58.413937,57.016064 59.406746,57.402256 60.675705,57.953629 
	C61.578114,58.604321 62.170670,59.133923 63.136681,59.590820 
	C64.051186,59.780792 64.669525,59.942364 65.567001,60.260925 
	C66.331314,60.801361 66.682190,61.282661 66.995155,62.303368 
	C65.910194,75.932899 66.754082,89.151703 66.469109,102.352844 
	C66.398201,105.637840 68.351387,108.777359 67.022827,112.556396 
	C66.777390,113.817459 66.562943,114.637306 66.171219,115.728188 
	C64.864815,116.873482 65.024635,118.147980 64.929581,119.654785 
	C64.864967,120.737137 64.824020,121.515388 64.610962,122.647949 
	C63.036674,125.629768 62.807068,128.456833 63.032227,131.689178 
	C63.086094,135.697235 63.124416,139.374786 63.118309,143.508896 
	C63.063713,145.789902 62.699295,147.634705 63.575996,149.707077 
	C63.879951,150.433807 63.995281,150.872467 64.065147,151.651154 
	C64.005272,152.523102 64.063629,153.042343 64.405205,153.769104 
	C64.677162,154.448166 64.832458,154.890656 64.949684,155.686676 
	C65.089447,157.231079 64.746712,158.520782 65.811295,159.793213 
	C66.165138,160.590988 66.292534,161.181839 66.320679,162.062286 
	C67.552040,165.133087 67.659889,167.845520 67.036232,170.984726 
	C65.836182,177.025208 66.647903,183.240189 66.556152,189.380798 
	C66.459328,195.859863 66.535202,202.341095 66.525230,208.821396 
	C66.520332,212.003525 65.853912,214.767731 62.359100,216.616913 
	C61.703831,217.055283 61.406452,217.196915 60.866058,217.271347 
	C59.718433,217.318726 59.128994,217.959061 58.237999,218.705597 
	C57.693775,219.048676 57.386600,219.177933 56.832584,219.246368 
	C55.744804,219.329865 55.160122,219.926193 54.246712,220.555908 
	C42.685505,227.091431 45.093372,226.188843 38.684734,218.318253 
	C37.019238,216.272827 35.545040,214.071625 33.871170,211.623306 
	C33.553337,210.521484 32.953930,210.006470 32.288101,209.187225 
	C32.106304,208.961655 31.891451,208.639099 31.841667,208.451828 
	C31.537107,207.524246 30.968533,207.001190 30.344990,206.169769 
	C29.748943,205.264771 29.312737,204.595551 28.793499,203.637451 
	C28.157831,202.206909 28.000706,201.047089 28.796614,199.474655 
	C29.859379,198.193024 30.675468,197.291534 31.688400,196.158966 
	C32.548351,195.500443 33.057579,194.910812 33.724667,194.078064 
	C36.923218,189.621765 41.328964,186.529160 43.917709,181.467102 
	C44.045418,180.541763 43.948540,179.959976 43.604095,179.133789 
	C43.364918,178.449570 43.236282,178.040085 43.081085,177.308731 
	C43.016296,176.412399 42.866646,175.874741 42.378593,175.159180 
	C42.018257,174.005844 41.808971,173.092361 41.561184,171.828888 
	C41.644566,170.606445 40.961140,170.081207 40.491833,169.146912 
z"/>
<path fill="#4FB6A8" opacity="1.000000" stroke="none" 
	d="
M149.787231,213.473877 
	C156.725586,211.285522 163.502686,209.647827 169.734268,206.362839 
	C172.127518,205.101242 173.344223,206.153992 173.922379,208.683441 
	C175.748932,216.674622 179.663513,223.498474 185.603531,229.189590 
	C186.511765,230.059769 187.359238,231.369385 187.526688,232.574188 
	C188.441422,239.155548 189.123672,245.768997 189.909821,252.368576 
	C190.231216,255.066727 188.582092,256.430359 186.424316,257.160248 
	C179.499664,259.502625 172.533310,261.722778 165.569901,263.948944 
	C162.475647,264.938171 161.134903,263.009460 159.796249,260.628998 
	C156.380280,254.554504 153.671371,248.068542 149.217377,242.200043 
	C151.462204,232.586472 150.972885,223.219208 149.787231,213.473877 
z"/>
<path fill="#66BC9C" opacity="1.000000" stroke="none" 
	d="
M109.251297,67.542664 
	C101.773697,71.381966 94.806511,75.447670 88.352020,80.912613 
	C85.091034,81.154388 84.583817,78.755043 84.041695,76.809219 
	C81.478218,67.608162 81.916534,58.524132 85.619728,49.223579 
	C88.757980,46.505848 87.614853,43.259121 87.603790,39.858192 
	C86.645035,37.253372 87.316948,34.841759 86.558701,32.243309 
	C86.288094,30.848850 86.173546,29.807833 86.082100,28.372061 
	C85.977791,26.859268 86.060417,25.726841 85.793503,24.285378 
	C85.446960,22.074671 85.618172,20.406242 88.157372,19.640949 
	C89.402443,19.641554 89.923073,18.960983 90.836243,18.423807 
	C91.698357,18.074272 92.309067,17.879288 93.240211,17.652699 
	C94.602776,17.407743 95.571030,16.984737 96.807541,16.394222 
	C97.992058,16.023151 98.911423,15.828382 100.183105,15.607964 
	C101.367737,15.633251 101.905846,14.988611 102.861603,14.596750 
	C103.541298,14.364977 103.958023,14.246115 104.700989,14.119852 
	C105.583519,14.041080 106.119751,13.904776 106.860870,13.499590 
	C111.585381,11.019883 114.581841,12.204762 116.067642,17.452442 
	C113.670227,28.591171 114.714638,39.546532 114.513138,50.441341 
	C114.454628,53.604362 114.676277,56.743916 115.102493,59.880283 
	C115.376732,61.898338 115.230911,63.879955 113.304321,65.764359 
	C112.731750,66.327019 112.423882,66.425362 111.850723,66.299271 
	C110.763054,66.305222 110.179024,66.921036 109.251297,67.542664 
z"/>
<path fill="#65BB9C" opacity="1.000000" stroke="none" 
	d="
M119.324722,251.103699 
	C119.320625,253.174728 118.285088,254.306503 117.231720,255.760727 
	C116.373535,256.589508 115.805771,257.246918 115.273300,258.310150 
	C114.541885,263.399292 112.284058,265.112762 107.414993,263.332550 
	C102.518471,261.542297 97.206749,260.955139 92.277977,258.144806 
	C89.584709,255.397263 89.486557,252.180481 89.462532,249.024231 
	C89.358650,235.378647 89.374222,221.732254 89.452621,208.086441 
	C89.469856,205.085739 89.672646,202.083191 91.706642,199.096329 
	C99.818573,203.511459 107.443642,208.498077 116.674576,211.127197 
	C121.020004,212.503891 121.805283,215.456726 121.289139,219.136002 
	C120.102631,227.593796 120.172791,236.065231 121.104317,244.536041 
	C121.355721,246.822250 120.672096,248.800858 119.324722,251.103699 
z"/>
<path fill="#66B896" opacity="1.000000" stroke="none" 
	d="
M82.973404,129.671967 
	C82.972351,134.691498 82.981201,139.402435 82.941833,144.580444 
	C82.950188,145.490387 83.026649,145.929825 83.215958,146.687317 
	C84.323555,148.740997 84.098419,150.710159 84.308792,152.986679 
	C84.308327,154.237350 84.922318,154.810242 85.461449,155.753845 
	C85.826424,156.623077 86.029785,157.239975 86.204956,158.184174 
	C87.002579,160.133820 87.453506,161.926773 88.656815,163.739456 
	C93.765076,172.713974 100.327766,179.918076 108.719086,185.913055 
	C112.266273,189.151764 112.717705,193.488647 109.821838,197.499237 
	C109.110046,197.304672 108.775291,197.288315 108.221481,197.141449 
	C106.951042,195.831314 105.478836,195.263443 103.903412,194.275558 
	C103.597862,194.149658 103.257416,194.150360 103.130798,194.036591 
	C102.400391,193.377274 101.797226,192.830994 100.841156,192.262695 
	C100.552513,192.163513 100.238342,192.190781 100.119804,192.086807 
	C99.441399,191.413269 98.852699,190.875763 97.952972,190.254623 
	C95.965813,189.223312 94.462593,188.057709 93.137787,186.229294 
	C92.441170,185.450333 91.924934,184.901642 91.154945,184.212387 
	C89.965874,182.984070 88.985596,181.945129 87.942398,180.602570 
	C87.555351,179.561035 86.980309,179.014618 86.250313,178.216919 
	C77.946373,169.158981 74.436646,158.237915 73.125000,146.756775 
	C70.414810,123.033989 78.014969,102.932999 95.899963,86.909576 
	C97.126183,85.810989 98.564644,84.949318 100.230209,83.903564 
	C101.396309,83.610168 101.953148,82.981163 102.783669,82.213280 
	C102.998901,81.989960 103.225891,81.784721 103.377701,81.803864 
	C104.348984,81.626419 104.909485,81.025589 105.775208,80.344528 
	C106.310707,80.010864 106.611511,79.867485 107.164185,79.750046 
	C112.167542,77.928421 112.770576,78.308441 113.003906,83.212311 
	C113.091629,85.056068 113.120163,86.858490 111.294189,88.516373 
	C109.004211,90.203377 107.018616,91.615097 104.710251,93.089935 
	C102.737282,93.857368 101.783257,95.385239 100.211563,96.684563 
	C92.235191,105.400146 86.467300,114.974434 83.742516,126.652969 
	C83.125328,127.727463 82.993843,128.530975 82.973404,129.671967 
z"/>
<path fill="#4EB6A9" opacity="1.000000" stroke="none" 
	d="
M158.714539,20.720913 
	C161.171844,11.995557 161.980835,11.638689 170.013016,13.747370 
	C175.658569,15.229492 181.060898,17.340248 186.528748,19.305185 
	C189.147552,20.246288 190.100937,21.922947 189.701294,24.675322 
	C189.034073,29.270527 188.479218,33.885361 188.024033,38.506409 
	C187.842407,40.350399 186.859116,41.534157 185.595627,42.666790 
	C178.057495,49.424164 173.994949,57.938747 173.185028,67.955879 
	C172.965515,70.670723 172.146530,71.020027 169.845947,69.951195 
	C166.837906,68.553673 163.722855,67.386513 160.322922,65.949051 
	C158.691925,64.784538 157.307220,63.944653 157.260056,61.954197 
	C157.073120,54.064808 155.892532,46.198513 156.897461,38.281422 
	C157.440994,33.999260 156.238937,29.751556 156.370941,25.036091 
	C156.319992,24.606947 156.359756,24.273983 156.501617,24.184624 
	C157.809753,23.422190 157.893539,22.034428 158.714539,20.720913 
z"/>
<path fill="#23ADBE" opacity="1.000000" stroke="none" 
	d="
M272.615173,65.465950 
	C279.335236,65.167046 285.655518,65.025665 291.976135,65.009521 
	C294.348480,65.003456 295.826569,64.438484 296.945221,61.939541 
	C300.339081,54.357800 308.677399,49.986366 316.070343,51.447189 
	C325.213715,53.253887 331.684479,60.886620 331.900879,70.120422 
	C332.096283,78.457466 326.492279,85.989960 318.326599,88.366020 
	C309.931641,90.808792 301.497498,87.709579 297.525818,79.828186 
	C295.496552,75.801315 292.990631,74.947380 288.912567,75.030464 
	C277.927612,75.254303 266.934235,75.066833 255.483994,74.955681 
	C253.762817,73.645638 253.414780,72.040443 253.203293,70.398918 
	C252.837921,67.562981 253.958252,66.083763 256.972931,66.001747 
	C262.053497,65.863525 267.149231,66.405983 272.615173,65.465950 
z"/>
<path fill="#22ACBD" opacity="1.000000" stroke="none" 
	d="
M270.754089,196.818604 
	C277.472656,195.585281 283.963165,196.210663 290.429626,196.200684 
	C293.621948,196.195770 295.503906,195.365601 297.028931,192.297012 
	C300.796967,184.714935 309.490509,180.763229 317.024139,182.664185 
	C325.987762,184.925980 332.038330,192.599197 331.899902,201.529266 
	C331.768188,210.021713 326.087402,217.321671 317.928406,219.482986 
	C309.319427,221.763519 301.235199,218.321259 297.054626,210.032455 
	C295.495209,206.940628 293.553375,206.143600 290.394836,206.218796 
	C283.577393,206.381088 276.752838,206.246933 269.466431,206.165939 
	C268.889984,205.880402 268.778351,205.662979 268.697937,205.080704 
	C270.032745,202.328735 269.343048,199.484558 270.754089,196.818604 
z"/>
<path fill="#22ACBD" opacity="1.000000" stroke="none" 
	d="
M287.631897,132.565613 
	C290.594452,127.705078 293.197418,123.141243 298.477386,120.789177 
	C307.226593,116.891708 318.365936,120.659645 322.443085,129.098938 
	C327.123047,138.785980 323.870056,149.692322 314.852020,154.549759 
	C305.733002,159.461594 295.197906,156.667831 290.377350,147.602707 
	C288.680084,144.410980 286.695404,143.439392 283.338348,143.596329 
	C279.193176,143.790131 275.027191,143.539139 270.444366,143.289948 
	C268.088989,140.337753 268.208801,137.261902 268.942688,133.826111 
	C275.194397,132.227158 281.264740,133.624466 287.631897,132.565613 
z"/>
<path fill="#5BB8A1" opacity="1.000000" stroke="none" 
	d="
M119.477493,251.359116 
	C120.811142,245.624634 118.358795,239.777756 118.944237,233.858643 
	C119.430168,228.945480 118.597847,223.976288 119.857300,219.038879 
	C120.525810,216.418167 120.588997,213.383392 117.099716,211.652222 
	C127.640953,213.509033 138.290665,215.438049 149.589172,213.076477 
	C152.718613,216.537292 151.961761,220.575989 151.992905,224.466476 
	C152.024796,228.451141 151.925446,232.438171 152.028961,236.420410 
	C152.085449,238.594177 151.672333,240.370407 149.285812,241.618958 
	C143.466675,241.955200 137.850815,242.362946 132.293304,241.961945 
	C126.984489,241.578873 123.394730,243.087173 121.655579,248.322861 
	C121.308067,249.369080 120.430710,250.239304 119.477493,251.359116 
z"/>
<path fill="#6CBC97" opacity="1.000000" stroke="none" 
	d="
M91.928452,198.476776 
	C89.828499,215.891571 91.485977,233.094330 91.054169,250.254288 
	C90.997261,252.515747 91.664337,254.795441 91.998047,257.487579 
	C84.982529,256.597687 84.154404,255.465836 85.281044,248.699783 
	C85.444313,247.719223 85.540459,246.712158 85.839111,245.771820 
	C89.678734,233.682175 85.324402,225.177002 74.207443,219.253204 
	C73.462837,218.436615 72.900429,217.908493 72.048302,217.285004 
	C71.788063,217.158081 71.897308,217.116714 71.872185,217.169434 
	C69.510124,214.609268 68.573860,211.488022 68.525146,208.047729 
	C68.430893,201.390228 68.241165,194.722488 68.599510,188.079163 
	C68.800186,184.358704 69.117004,180.358398 73.822922,178.636719 
	C74.274399,178.769012 74.205841,178.910980 74.206131,178.832153 
	C74.439003,179.504059 75.036140,179.991272 75.696320,180.780426 
	C80.534203,187.324066 85.982735,192.918228 91.928452,198.476776 
z"/>
<path fill="#62B599" opacity="1.000000" stroke="none" 
	d="
M118.881195,177.325668 
	C118.140900,177.168396 117.799774,177.155228 117.230408,177.017609 
	C116.382690,176.349121 115.761818,175.806839 114.775421,175.265854 
	C108.638588,172.588837 104.363304,168.269409 100.934113,162.625381 
	C100.592644,161.660614 100.127945,161.143845 99.560974,160.282440 
	C98.839302,159.060593 98.308144,158.125519 97.792625,156.862015 
	C97.659027,155.737976 97.082024,155.171982 96.561142,154.244995 
	C87.917381,133.723557 97.781013,107.218887 116.991287,99.672134 
	C121.497154,100.243362 122.110207,101.639351 120.304611,107.596619 
	C119.999519,108.022926 119.767441,108.215019 119.620186,108.183304 
	C118.634865,108.376648 118.066841,108.996635 117.216507,109.748978 
	C105.157166,119.840149 100.188019,132.151520 104.131088,147.375885 
	C105.728874,153.544998 108.994179,158.896057 113.933891,163.510681 
	C114.508469,164.557724 115.157738,165.098480 116.118774,165.736542 
	C118.103256,166.784409 119.790840,167.720612 121.737732,168.856430 
	C122.987503,169.987610 124.233505,170.431625 125.470299,170.907486 
	C127.666939,171.752625 129.434906,173.070206 128.497360,175.704758 
	C127.527031,178.431458 125.361389,179.468735 122.542480,178.623672 
	C121.446533,178.295120 120.312119,178.008911 118.881195,177.325668 
z"/>
<path fill="#7CC08F" opacity="1.000000" stroke="none" 
	d="
M36.500664,117.730896 
	C38.732456,130.669250 38.625336,143.717316 36.826973,157.249298 
	C36.069202,157.606644 35.389027,157.481430 34.369270,157.280731 
	C33.373680,157.053162 32.740288,156.838028 31.811474,156.589478 
	C31.156471,156.666336 30.832685,156.649567 30.270905,156.558533 
	C29.149214,156.069977 28.144482,155.980209 26.886379,155.537521 
	C25.895098,155.460892 25.270956,155.406708 24.338120,155.298264 
	C22.247807,154.851761 20.598677,153.905945 18.364620,153.948792 
	C17.292053,153.860992 16.562641,153.794724 15.483120,153.618393 
	C14.321066,153.130554 13.481505,152.813339 12.455681,152.151855 
	C12.132292,151.182266 12.041553,150.455170 11.972872,149.360077 
	C11.992677,148.540543 11.964315,148.090637 11.842346,147.310806 
	C11.749985,141.305237 11.725093,135.631241 11.723665,129.491653 
	C11.966724,128.238678 12.003203,127.430893 12.021519,126.316780 
	C11.662911,123.498177 13.158968,122.519875 15.652966,122.057434 
	C16.464014,122.025002 16.909397,121.986618 17.684277,121.878975 
	C18.645857,121.733444 19.276798,121.643944 20.226303,121.541489 
	C21.604307,121.457115 22.540491,120.938202 23.840328,120.568680 
	C24.843054,120.297302 25.559378,120.157013 26.642155,120.016739 
	C28.938160,120.011795 30.643250,118.958282 32.850613,118.745163 
	C34.146084,118.385727 35.137611,118.112358 36.500664,117.730896 
z"/>
<path fill="#6CBB95" opacity="1.000000" stroke="none" 
	d="
M85.348602,48.871727 
	C87.150414,49.691853 86.866943,50.740280 86.314987,52.169918 
	C82.790688,61.298431 82.915489,70.466667 86.396278,79.591682 
	C86.558784,80.017700 87.049271,80.318611 87.709427,80.847595 
	C80.446274,89.268311 73.406601,97.895988 69.147720,108.436928 
	C68.594658,109.805786 68.083328,111.191521 67.272255,112.783524 
	C63.011074,97.850998 65.818237,82.413246 65.075577,67.127182 
	C65.006348,65.702309 65.668556,64.241898 66.007568,62.371529 
	C66.702751,61.244652 67.623024,61.033638 68.808151,60.572826 
	C70.163414,59.650795 71.205864,58.881390 72.555283,58.011055 
	C73.437973,57.519306 73.956909,57.054363 74.799149,56.440323 
	C78.395012,53.805923 81.708427,51.373955 85.348602,48.871727 
z"/>
<path fill="#5EB99F" opacity="1.000000" stroke="none" 
	d="
M113.401321,66.111328 
	C114.946831,62.394207 112.996330,58.682819 112.999039,54.971577 
	C113.005318,46.372837 113.140717,37.770782 112.937874,29.176823 
	C112.845146,25.248215 113.309105,21.657360 115.947067,18.155622 
	C119.494316,21.479599 120.744827,26.406290 123.506012,30.456076 
	C124.423210,31.801313 124.983475,33.393364 126.732834,34.557533 
	C128.118973,35.035343 129.229340,35.005798 130.670944,34.992947 
	C132.074066,34.925812 133.144455,34.865467 134.608124,34.899094 
	C137.018570,36.635265 137.520142,38.847130 137.038223,41.232159 
	C136.103180,45.859673 136.678146,50.390438 137.423721,54.969910 
	C138.470596,61.400051 138.110138,61.750843 131.758804,62.009460 
	C131.098648,62.036335 130.444656,62.088951 129.406158,62.422081 
	C123.940407,63.766815 118.871437,64.942093 113.401321,66.111328 
z"/>
<path fill="#43B2AD" opacity="1.000000" stroke="none" 
	d="
M214.015167,183.603546 
	C214.836151,183.809494 215.182770,183.818604 215.760834,183.954269 
	C216.615707,184.640259 217.240341,185.198196 218.267700,185.692459 
	C218.576981,185.746750 218.823242,185.669632 218.922302,185.752319 
	C219.486862,186.576706 220.166443,187.099976 221.152985,187.718689 
	C221.729294,187.831955 221.935974,187.955078 222.132080,188.362137 
	C222.383820,189.424515 223.054718,189.977707 223.882904,190.792175 
	C224.137741,190.985001 224.305573,191.188858 224.269043,191.315735 
	C224.612915,193.039581 225.891678,194.260635 226.139465,196.328369 
	C225.871124,199.574463 225.014771,202.400314 225.941559,205.680283 
	C225.894760,207.727982 225.253479,209.198929 224.328659,210.998032 
	C223.669250,212.175934 223.185699,212.990616 222.442932,213.940247 
	C221.512833,214.490387 220.964600,215.049606 220.201035,215.805542 
	C219.390839,216.443604 218.781845,216.868378 217.889191,217.283798 
	C216.698410,217.320480 216.128983,217.973511 215.228012,218.663177 
	C211.311157,219.951859 207.604218,219.690338 203.451508,218.959137 
	C202.370056,218.296753 201.726044,217.793381 200.726532,217.313538 
	C199.704651,217.012527 198.985245,216.761093 198.134155,216.245667 
	C197.451767,215.462708 196.929794,214.913925 196.157242,214.216431 
	C192.881241,211.664520 191.656937,208.341003 191.116287,204.307068 
	C190.961670,202.535721 191.017288,201.135468 191.062790,199.386749 
	C191.138489,198.268356 191.193939,197.499283 191.410461,196.376968 
	C191.867844,195.326355 192.238144,194.668671 192.703857,193.752548 
	C194.474106,188.035889 198.212173,184.858337 204.081039,183.707794 
	C207.437531,182.657684 210.480988,182.824234 214.015167,183.603546 
z"/>
<path fill="#55B6A3" opacity="1.000000" stroke="none" 
	d="
M129.440460,62.687462 
	C130.040543,59.886734 132.381058,61.329273 134.143433,61.020584 
	C135.456192,60.790649 137.196976,60.883217 136.714767,58.982281 
	C134.960587,52.066990 134.436768,45.153229 135.829468,38.111557 
	C135.967590,37.413204 135.357239,36.566826 135.047836,35.391113 
	C136.804489,34.785301 138.707870,34.098202 140.393707,34.450897 
	C148.664230,36.181171 152.800385,31.575994 156.034363,24.760159 
	C159.399963,28.364782 158.689697,33.142662 158.515671,37.193069 
	C158.225677,43.943241 157.415939,50.633282 158.927338,57.300198 
	C159.516312,59.898212 157.137161,62.817608 159.924194,65.451866 
	C150.130615,62.981548 140.096603,61.921589 129.440460,62.687462 
z"/>
<path fill="#3DB1B2" opacity="1.000000" stroke="none" 
	d="
M252.238953,74.503464 
	C245.029617,74.943558 238.085571,75.069122 231.141556,75.066208 
	C229.039337,75.065331 227.163544,75.212822 225.870728,77.667419 
	C225.234314,78.635315 224.796585,79.263985 224.285995,80.173698 
	C223.054901,83.231682 220.965363,85.062256 217.952545,86.258522 
	C214.512039,87.252739 211.587967,89.286568 208.186890,88.808891 
	C205.831650,88.478111 202.778946,88.057953 202.548111,84.946579 
	C202.321213,81.888573 203.993958,79.592995 207.230927,78.843079 
	C208.194412,78.619858 209.208359,78.638710 210.435379,78.025864 
	C213.454636,75.641624 215.653763,73.147812 215.981049,69.125237 
	C216.134171,68.147415 216.166321,67.511223 215.558395,66.697922 
	C214.407257,65.800194 213.562729,65.060799 212.703171,63.888947 
	C211.932968,62.982784 211.211731,62.755745 210.021240,62.961849 
	C208.675186,63.114807 207.677750,63.045044 206.282318,62.704712 
	C202.368973,61.798721 201.581528,59.507042 202.222992,56.268646 
	C202.849030,53.108166 204.806229,51.895107 207.852341,52.016624 
	C209.484680,52.081741 211.148514,51.812416 213.154953,52.652359 
	C214.209229,52.818157 214.824722,52.840733 215.720276,53.003990 
	C216.631195,53.686169 217.273163,54.213184 218.282043,54.726833 
	C221.654358,55.647434 223.697281,57.929241 224.721527,60.600609 
	C226.142319,64.306290 228.473221,65.589050 232.574280,65.176476 
	C236.975952,66.739677 241.110886,65.857552 245.172455,65.963821 
	C252.034210,66.143372 253.026321,67.131371 252.238953,74.503464 
z"/>
<path fill="#5CB8A0" opacity="1.000000" stroke="none" 
	d="
M119.501465,142.215485 
	C118.617332,139.634674 118.871399,137.246338 119.263199,134.437378 
	C119.671608,133.554626 119.926598,133.094406 120.087128,132.314789 
	C120.581932,128.654526 122.535400,126.175262 125.368591,123.955902 
	C126.423798,123.562111 126.969475,122.997322 127.779190,122.298904 
	C128.303162,121.971565 128.604385,121.833496 129.154282,121.736420 
	C134.422562,119.249542 139.501709,119.572044 145.037231,121.644135 
	C145.460922,121.828583 145.757141,121.761276 145.879288,121.851562 
	C146.629990,122.781143 147.542603,123.202286 148.672989,123.829025 
	C151.413208,125.314621 152.570084,127.631088 153.552826,130.478394 
	C148.551941,135.746872 150.589203,141.035004 152.866699,146.664948 
	C152.280869,149.773300 150.111374,151.346893 147.745422,153.089844 
	C146.643753,153.387711 146.088257,153.967773 145.225311,154.615540 
	C144.396469,154.982422 143.802277,155.169281 142.898804,155.286835 
	C139.229126,156.396271 135.819946,156.179718 131.912750,155.392532 
	C125.414177,154.100449 122.172836,150.013565 120.113464,144.305984 
	C120.046425,143.418274 119.914284,142.907898 119.501465,142.215485 
z"/>
<path fill="#37B2B6" opacity="1.000000" stroke="none" 
	d="
M243.726196,88.521057 
	C244.753510,88.275848 245.499390,88.191185 246.611084,88.209503 
	C249.438400,90.977539 248.877884,93.981369 247.798615,97.360138 
	C245.005524,99.803757 241.569489,101.024963 239.928802,104.724686 
	C238.978653,105.833130 238.612000,106.719070 239.576782,108.034996 
	C240.756287,111.909683 244.191696,112.904198 247.007751,115.145248 
	C248.084900,116.271797 248.691040,117.227310 248.982300,118.357925 
	C250.184830,123.025726 248.245575,125.128098 243.586884,124.191261 
	C242.475998,123.967873 241.301254,124.032326 239.841797,123.341293 
	C236.600494,122.835167 234.674744,121.103737 232.934845,118.662888 
	C232.577347,117.597900 232.012207,117.050758 231.332138,116.227806 
	C231.004028,115.695679 230.861404,115.389122 230.754562,114.827843 
	C230.664124,113.650963 229.991318,113.083321 229.169495,112.243279 
	C221.915573,111.984955 214.907349,111.936302 207.447449,111.756775 
	C205.143250,109.568756 205.555847,107.217873 206.320648,104.461288 
	C209.517288,101.815407 213.164932,103.869255 216.658203,102.362457 
	C220.874191,101.920296 224.738373,101.705215 228.962448,101.253876 
	C229.753769,100.362000 230.209244,99.722557 230.699356,98.775909 
	C231.951218,93.725212 235.651917,91.520042 240.064758,89.734238 
	C241.449783,89.493393 242.409958,88.984238 243.726196,88.521057 
z"/>
<path fill="#4DB5AA" opacity="1.000000" stroke="none" 
	d="
M204.280060,170.236908 
	C200.545761,171.702240 196.559784,169.635971 193.171951,172.735657 
	C192.376465,173.599030 191.841705,174.178940 191.266327,175.090637 
	C185.358749,185.034637 177.335144,192.265366 166.882019,197.190475 
	C164.310776,197.709366 161.970184,199.891739 159.861603,197.348831 
	C158.016159,195.123276 157.110031,192.513672 159.674438,189.574585 
	C171.639267,183.561569 180.270416,174.725647 186.834442,163.264252 
	C190.132721,160.863464 201.104752,160.468262 203.610123,162.604141 
	C205.999817,164.641388 205.630432,167.280228 204.280060,170.236908 
z"/>
<path fill="#4EB9AC" opacity="1.000000" stroke="none" 
	d="
M206.689362,103.707413 
	C206.997101,106.258995 206.996277,108.529137 206.995605,111.212585 
	C201.056732,111.742889 195.117401,111.846199 189.178879,111.984337 
	C187.113708,112.032364 185.729614,111.083954 184.799393,108.906998 
	C184.655823,107.626236 183.978241,107.076279 183.210785,106.222313 
	C182.648178,105.636017 182.315002,105.267769 181.889435,104.667984 
	C181.605972,103.578064 180.960693,103.036987 180.164429,102.234879 
	C175.382416,98.181190 171.685776,93.364609 166.270233,89.978943 
	C165.392654,89.308746 164.797958,88.829704 163.910278,88.283752 
	C162.808090,87.805084 161.973373,87.428162 160.981171,86.816772 
	C158.823563,80.909912 159.688766,79.076477 165.166412,78.600090 
	C175.280411,81.732864 181.613953,88.921585 188.035339,96.424423 
	C188.465454,97.472206 189.044693,98.012817 189.800125,98.788704 
	C190.579437,99.559578 191.148254,100.122719 191.812866,100.976768 
	C194.210083,103.582375 197.157806,102.892296 199.939117,103.012489 
	C202.088547,103.105385 204.272781,102.687271 206.689362,103.707413 
z"/>
<path fill="#34ADB2" opacity="1.000000" stroke="none" 
	d="
M246.160904,184.953796 
	C239.727753,185.227890 234.289230,182.796387 231.823380,177.229050 
	C229.351578,171.648346 225.856659,170.049484 220.378815,170.927536 
	C219.582047,171.055252 218.736877,170.880966 217.472198,170.724289 
	C213.400452,164.019409 214.958954,161.187363 222.302551,161.010025 
	C224.265762,160.962601 226.236115,161.134018 228.592712,160.699799 
	C232.304855,154.257980 236.301086,148.785751 244.625534,148.297470 
	C247.039978,150.866867 246.155746,153.980545 246.842896,157.121140 
	C246.616302,158.993912 245.436172,159.656387 244.385025,160.488159 
	C238.985260,164.760895 238.874069,168.405045 243.951462,173.176987 
	C244.437607,173.633881 244.928482,174.081711 245.537994,174.932526 
	C246.572006,178.337570 246.464096,181.478943 246.160904,184.953796 
z"/>
<path fill="#2CADB7" opacity="1.000000" stroke="none" 
	d="
M246.227997,158.343338 
	C245.067535,155.187393 244.809891,152.224609 244.998535,148.808762 
	C254.226196,146.890976 263.223114,153.298569 264.997375,162.651306 
	C266.891449,172.635529 261.189484,182.333420 252.221619,184.059311 
	C250.291840,184.430725 248.852051,186.360214 246.303772,185.466095 
	C244.521927,182.303070 245.112610,179.112152 244.998871,175.562561 
	C245.677002,174.020981 246.871124,173.892670 247.965622,173.643723 
	C251.247375,172.897308 253.047806,170.805389 253.457474,167.544159 
	C253.880325,164.178101 252.134048,161.958847 249.356567,160.387817 
	C248.365204,159.827057 247.257111,159.462631 246.227997,158.343338 
z"/>
<path fill="#2CA9B3" opacity="1.000000" stroke="none" 
	d="
M247.201477,98.384972 
	C246.979645,95.082085 248.032150,92.066132 246.983032,88.683388 
	C255.153824,87.668236 263.411499,94.056511 264.950745,102.217400 
	C266.888245,112.489433 261.365906,122.444748 252.349121,124.790176 
	C248.108521,125.893227 243.872208,126.187378 239.641357,123.531960 
	C240.413925,123.164688 241.406815,123.080925 242.399094,123.087753 
	C244.198044,123.100113 246.464417,125.396553 247.664719,122.754128 
	C248.702530,120.469475 248.290298,117.872185 246.077698,115.611519 
	C246.543625,113.866287 247.994339,113.686897 249.069839,113.003120 
	C254.808441,109.354752 255.089920,104.546570 249.784088,100.396744 
	C249.011688,99.792648 248.107788,99.365692 247.201477,98.384972 
z"/>
<path fill="#4EBBAD" opacity="1.000000" stroke="none" 
	d="
M177.438416,143.115372 
	C169.906006,143.368484 162.843002,143.567184 155.305359,143.831650 
	C151.423721,143.607407 151.242004,140.839035 151.060089,138.485458 
	C150.856689,135.853500 151.803604,133.579865 155.377777,133.050446 
	C170.608826,133.120270 185.371750,132.721802 200.575897,133.442474 
	C202.906326,135.995102 202.638611,138.579727 201.626221,141.640961 
	C197.456970,143.923660 193.297043,142.718185 189.254318,142.955429 
	C185.482620,143.176773 181.690155,142.929474 177.438416,143.115372 
z"/>
<path fill="#41ADA8" opacity="1.000000" stroke="none" 
	d="
M213.366180,52.464329 
	C211.642426,52.865128 209.650299,53.218975 207.748215,52.945747 
	C203.634491,52.354824 203.997787,55.675022 203.231918,57.882607 
	C202.198456,60.861591 204.795731,60.809502 206.753174,61.708260 
	C207.445648,63.893715 205.728531,64.504730 204.800201,65.548233 
	C200.662735,70.199020 202.248291,75.333984 208.305252,76.689888 
	C209.435562,76.942917 210.632812,76.918610 211.824615,77.920944 
	C211.627411,80.323502 209.944626,80.129044 208.536499,79.966629 
	C204.899170,79.547112 203.596939,82.271133 203.503906,84.707237 
	C203.394623,87.569443 206.409653,87.717407 208.665512,87.968842 
	C211.550598,88.290421 213.980194,86.427948 217.185608,86.181091 
	C210.791656,92.784035 198.853577,88.163010 194.240585,81.731239 
	C189.372345,74.943558 189.250885,66.399117 194.049316,59.016953 
	C197.467850,53.757744 207.334885,49.145645 213.366180,52.464329 
z"/>
<path fill="#54B3A1" opacity="1.000000" stroke="none" 
	d="
M159.638779,189.268829 
	C158.229431,195.768066 159.796906,197.909409 166.119690,197.124329 
	C159.823441,201.678589 152.185089,203.323425 144.332626,204.158569 
	C141.564468,204.452972 138.743866,204.254227 135.490677,204.181366 
	C134.236450,203.998230 133.434479,203.995636 132.334579,203.936279 
	C131.196960,203.866272 130.359222,203.815781 129.227341,203.643799 
	C127.185226,200.163818 126.436829,196.923553 130.508240,194.122284 
	C140.706451,194.181900 150.289459,193.473770 159.638779,189.268829 
z"/>
<path fill="#55B8A5" opacity="1.000000" stroke="none" 
	d="
M165.504639,78.413475 
	C160.549927,78.599884 160.926270,82.248680 160.871643,86.107712 
	C156.473328,85.368286 152.122955,84.154251 147.391159,82.801727 
	C145.535751,81.616150 143.604126,82.354927 141.745880,81.333344 
	C138.578461,82.191498 135.674774,81.988823 132.368027,81.930656 
	C128.968857,82.015915 125.896736,82.591415 124.111008,79.126930 
	C122.257942,75.531792 123.307854,73.641129 127.303070,72.995178 
	C134.577301,71.819069 141.814713,71.703957 149.507614,73.083633 
	C150.696915,73.148384 151.445007,73.174080 152.552124,73.314346 
	C153.771484,73.966339 154.839569,73.978142 155.968063,74.654228 
	C159.600967,74.976044 162.623856,76.100243 165.504639,78.413475 
z"/>
<path fill="#59B19C" opacity="1.000000" stroke="none" 
	d="
M120.372330,107.994522 
	C119.307045,105.357010 121.612541,102.027985 117.777466,99.841125 
	C119.050964,97.342499 121.840263,97.049194 124.669724,96.115051 
	C125.580246,96.039627 126.107788,95.914970 126.838623,95.527878 
	C129.317917,94.505104 131.552536,93.603188 134.139999,92.646164 
	C135.483887,92.275002 136.486801,92.081665 138.028870,92.422150 
	C143.388916,94.221474 145.407379,98.251137 143.731644,102.934113 
	C142.412231,106.621315 137.253433,109.484985 134.108215,107.304832 
	C129.121811,103.848442 125.103905,106.238930 120.372330,107.994522 
z"/>
<path fill="#6CBB95" opacity="1.000000" stroke="none" 
	d="
M74.270264,178.409912 
	C70.833618,179.969986 70.273026,183.748032 70.285851,185.957535 
	C70.344780,196.106766 68.294342,206.432816 71.862480,216.811035 
	C68.854416,215.520401 65.833839,214.668732 62.356239,216.917847 
	C65.255104,213.913651 65.063812,210.008026 65.031219,206.046890 
	C64.942268,195.238220 65.245834,184.419662 64.864395,173.623749 
	C64.735443,169.973969 68.272438,166.951111 66.176941,162.779343 
	C69.895111,167.076447 71.030258,173.101868 74.270264,178.409912 
z"/>
<path fill="#379596" opacity="1.000000" stroke="none" 
	d="
M201.395752,134.367310 
	C185.991074,134.048752 170.983154,134.022797 155.509384,133.987885 
	C154.672638,133.655472 154.523117,133.245224 154.768280,132.475708 
	C199.012741,132.217453 243.054398,132.243210 287.561890,132.332382 
	C287.301544,134.697525 285.350861,133.918671 283.836761,133.949051 
	C279.198486,134.042160 274.557404,133.995239 269.447937,134.016663 
	C267.207581,135.616669 265.006348,135.563400 262.854279,135.566650 
	C256.215363,135.576706 249.575821,135.694824 242.448181,135.499832 
	C230.182327,135.759216 218.404327,135.567444 206.626968,135.578415 
	C204.968369,135.579956 203.299530,135.513565 201.395752,134.367310 
z"/>
<path fill="#57AE9A" opacity="1.000000" stroke="none" 
	d="
M118.683243,177.493073 
	C119.999405,176.864929 121.385384,177.329041 122.822601,177.763412 
	C125.083977,178.446838 126.832382,177.403717 127.641441,175.383667 
	C128.591965,173.010361 126.502953,172.330063 124.916367,171.470734 
	C123.952919,170.948914 122.537659,171.147003 122.056839,169.400574 
	C126.044334,170.253952 129.793701,171.929840 134.281555,169.382233 
	C137.275055,167.682922 140.936493,168.965317 142.888107,172.228271 
	C144.796646,175.419205 144.989441,178.921906 142.484283,181.953827 
	C140.183197,184.738800 136.807678,186.352234 133.707184,184.208069 
	C129.115585,181.032745 123.452217,180.757095 118.683243,177.493073 
z"/>
<path fill="#2EB3BC" opacity="1.000000" stroke="none" 
	d="
M241.679077,134.403259 
	C250.670792,134.044525 259.358490,134.025360 268.512329,134.018372 
	C269.916687,136.738724 270.195984,139.527390 270.008118,142.736954 
	C264.999786,144.504700 259.947937,142.779190 254.476196,143.220123 
	C249.951111,142.685013 245.830139,143.335648 241.351471,142.554504 
	C239.083267,139.700256 239.722382,137.193344 241.679077,134.403259 
z"/>
<path fill="#58AD97" opacity="1.000000" stroke="none" 
	d="
M149.661499,72.863388 
	C148.331055,74.600044 146.595581,73.905136 144.829910,73.462013 
	C138.389664,71.845695 132.071381,74.206230 125.671265,74.128571 
	C124.447350,74.113716 123.852554,75.174118 124.284401,76.206177 
	C125.019798,77.963715 125.277534,80.216759 127.526512,80.859001 
	C128.770218,81.214172 130.118729,81.202301 131.684189,81.616806 
	C125.083656,83.835243 117.988266,85.115913 111.347015,88.784424 
	C112.537285,86.174133 111.612198,83.324539 111.523041,80.632217 
	C111.421219,77.557419 109.216629,80.649376 107.802292,79.823654 
	C110.973701,75.829720 116.050529,74.810738 120.744209,73.560760 
	C130.134979,71.059898 139.746536,70.357925 149.661499,72.863388 
z"/>
<path fill="#5BAF97" opacity="1.000000" stroke="none" 
	d="
M130.700684,193.806335 
	C127.842239,196.303391 129.345413,199.650711 128.956406,203.040527 
	C121.960884,203.717148 115.774254,201.234131 109.638428,197.619537 
	C110.754601,193.759140 111.068268,190.228958 109.051521,186.437302 
	C115.853188,189.404266 122.842125,192.332047 130.700684,193.806335 
z"/>
<path fill="#3EA7A5" opacity="1.000000" stroke="none" 
	d="
M228.533539,160.491348 
	C228.115570,162.746704 226.196579,161.937210 224.674377,161.974991 
	C216.348511,162.181564 216.347717,162.149475 217.020538,170.220398 
	C212.983826,171.368378 208.910141,170.920334 204.397217,170.723419 
	C204.082840,163.863327 204.086655,163.842239 195.059891,162.206833 
	C192.616821,161.764236 190.177841,161.843140 187.458771,162.955658 
	C187.509140,159.899704 189.879410,160.345642 191.994949,160.348434 
	C204.020889,160.364288 216.046814,160.387238 228.533539,160.491348 
z"/>
<path fill="#379596" opacity="1.000000" stroke="none" 
	d="
M240.596573,141.699188 
	C245.155640,142.293594 249.366791,141.469513 253.766464,142.851685 
	C253.417267,143.381866 252.801376,143.758835 252.185883,143.758224 
	C227.341446,143.733185 202.497055,143.674026 177.310822,143.394516 
	C179.333893,140.899384 182.248993,142.201981 184.889862,142.082916 
	C189.939117,141.855270 195.005600,142.009796 200.533691,141.998322 
	C202.309021,140.793991 203.930527,140.478622 205.608307,140.458237 
	C215.868088,140.333694 226.128326,140.334885 236.388153,140.458282 
	C237.717712,140.474274 239.028931,140.685654 240.596573,141.699188 
z"/>
<path fill="#2BA1AC" opacity="1.000000" stroke="none" 
	d="
M252.347656,74.975189 
	C250.735214,66.996979 250.731873,67.129311 242.765060,66.928467 
	C239.590576,66.848434 236.229309,68.025749 233.106186,65.640717 
	C246.022202,64.538239 259.064209,65.036728 272.558716,65.134003 
	C272.668579,67.016434 271.315369,66.991776 269.965759,66.990005 
	C267.335022,66.986542 264.704315,66.993019 262.073578,66.994186 
	C254.500717,66.997566 254.500717,66.997330 255.018112,74.458862 
	C254.256409,74.940193 253.489029,75.011635 252.347656,74.975189 
z"/>
<path fill="#37A4A6" opacity="1.000000" stroke="none" 
	d="
M224.476715,211.175430 
	C224.432922,209.839737 224.713089,208.318222 225.002243,206.409363 
	C226.557739,203.067917 229.425583,203.493576 231.979950,203.469406 
	C241.868271,203.375839 251.757843,203.388412 262.126160,203.496094 
	C264.532715,203.549789 266.487366,203.371292 268.633057,204.677216 
	C268.995453,205.184921 269.000336,205.367355 269.003418,205.823792 
	C263.792969,207.681717 258.461670,206.599197 253.192734,206.757599 
	C246.369766,206.962723 239.528030,207.008881 232.710175,206.732910 
	C229.006989,206.583038 226.195847,207.249802 224.476715,211.175430 
z"/>
<path fill="#37A4A6" opacity="1.000000" stroke="none" 
	d="
M225.270691,197.357712 
	C224.720169,195.400436 224.426834,193.833023 224.183014,191.854111 
	C226.706314,195.703964 230.522720,196.308609 235.121536,196.158859 
	C244.059387,195.867828 253.015732,196.144760 262.398468,196.335526 
	C262.613464,197.881424 261.550964,198.441147 259.969849,199.057236 
	C249.681793,199.905060 239.824356,199.476135 229.971466,199.440094 
	C228.334167,199.434113 226.664597,199.211624 225.270691,197.357712 
z"/>
<path fill="#28ACB9" opacity="1.000000" stroke="none" 
	d="
M261.021393,198.368256 
	C261.483490,197.602661 261.981628,197.204910 262.656128,196.645905 
	C265.277893,196.404556 267.723236,196.324463 270.596100,196.410660 
	C270.396301,199.299362 272.327484,202.414108 269.373657,204.920502 
	C267.273499,205.002853 265.556427,205.003204 263.409912,204.998932 
	C261.380371,203.202942 261.780548,200.796921 261.021393,198.368256 
z"/>
<path fill="#52AE9D" opacity="1.000000" stroke="none" 
	d="
M154.825394,131.993408 
	C154.980927,132.588882 154.990768,132.986084 155.022079,133.681107 
	C149.776352,136.748581 152.455872,140.189865 154.532440,143.726196 
	C154.383850,144.815704 153.937012,145.733978 153.236206,146.826111 
	C147.768692,144.104385 147.629578,134.284103 153.174988,130.907104 
	C153.956436,131.161346 154.318069,131.478226 154.825394,131.993408 
z"/>
<path fill="#3FA4A1" opacity="1.000000" stroke="none" 
	d="
M207.446472,103.989792 
	C203.553345,103.989319 200.108749,103.987137 196.664169,103.991280 
	C194.848145,103.993469 192.967621,104.154549 192.002487,101.632538 
	C199.943008,102.487984 208.036682,101.491356 216.551178,102.025208 
	C214.604126,105.860916 210.887619,103.147667 207.446472,103.989792 
z"/>
<path fill="#52AE9D" opacity="1.000000" stroke="none" 
	d="
M145.252747,121.505371 
	C140.415192,121.412285 135.367920,120.071182 129.864410,121.815582 
	C134.463806,117.557785 139.728027,118.682503 145.252747,121.505371 
z"/>
<path fill="#52AE9D" opacity="1.000000" stroke="none" 
	d="
M131.668854,155.538940 
	C134.807449,155.168930 138.186554,155.126862 142.077576,155.151154 
	C139.188370,158.047913 135.572037,157.338806 131.668854,155.538940 
z"/>
<path fill="#37A4A6" opacity="1.000000" stroke="none" 
	d="
M214.261551,183.477875 
	C211.478973,183.837769 208.468414,183.875168 204.950989,183.838409 
	C207.486389,181.132706 210.744019,181.892517 214.261551,183.477875 
z"/>
<path fill="#6CBB95" opacity="1.000000" stroke="none" 
	d="
M63.288689,131.725922 
	C60.811638,128.872910 62.330021,126.058662 64.132004,123.122314 
	C64.135765,125.812225 63.832684,128.622177 63.288689,131.725922 
z"/>
<path fill="#528F7A" opacity="1.000000" stroke="none" 
	d="
M86.274551,32.297882 
	C89.235397,33.603683 87.548958,36.304680 87.736328,39.009895 
	C85.331436,37.591480 86.393654,35.006531 86.274551,32.297882 
z"/>
<path fill="#6CBB95" opacity="1.000000" stroke="none" 
	d="
M63.876812,149.609848 
	C60.829842,148.720108 62.052807,146.495209 62.785622,144.206802 
	C64.274414,145.562668 63.784698,147.453995 63.876812,149.609848 
z"/>
<path fill="#528F7A" opacity="1.000000" stroke="none" 
	d="
M32.808743,118.499466 
	C31.674177,120.613670 29.454611,120.267670 27.214933,120.258995 
	C28.577017,118.645630 30.478561,118.358047 32.808743,118.499466 
z"/>
<path fill="#528F7A" opacity="1.000000" stroke="none" 
	d="
M18.223534,154.198425 
	C20.169928,152.040161 21.803434,154.199142 23.842245,154.944153 
	C22.010012,156.081863 20.261486,154.959656 18.223534,154.198425 
z"/>
<path fill="#58AD97" opacity="1.000000" stroke="none" 
	d="
M141.600693,81.581444 
	C143.217148,81.213402 145.166489,80.233246 146.890991,82.305206 
	C145.202896,82.922615 143.399200,83.160553 141.600693,81.581444 
z"/>
<path fill="#37A4A6" opacity="1.000000" stroke="none" 
	d="
M190.825684,199.264191 
	C192.476227,200.356232 192.085342,201.903015 191.406067,203.692123 
	C189.756577,202.611740 190.120819,201.056931 190.825684,199.264191 
z"/>
<path fill="#58AD97" opacity="1.000000" stroke="none" 
	d="
M100.296387,96.863174 
	C100.306740,94.772812 101.484451,93.461082 104.015335,93.126747 
	C103.605827,94.861107 102.284111,96.017220 100.296387,96.863174 
z"/>
<path fill="#5BAF97" opacity="1.000000" stroke="none" 
	d="
M88.863380,163.649841 
	C86.280609,163.422363 86.781921,161.020187 86.145096,158.908997 
	C88.037827,159.565323 87.891449,161.740295 88.863380,163.649841 
z"/>
<path fill="#5BAF97" opacity="1.000000" stroke="none" 
	d="
M103.755623,194.454315 
	C105.427635,194.075378 107.011795,194.491623 107.949997,196.656769 
	C106.289726,196.895218 105.068649,195.886841 103.755623,194.454315 
z"/>
<path fill="#6CBB95" opacity="1.000000" stroke="none" 
	d="
M65.175301,119.728226 
	C63.686260,118.529282 63.397644,117.199333 65.656143,116.052551 
	C65.810860,117.165344 65.627777,118.331451 65.175301,119.728226 
z"/>
<path fill="#528F7A" opacity="1.000000" stroke="none" 
	d="
M85.523857,24.215553 
	C87.314278,24.816257 87.077560,26.133862 86.352615,27.744463 
	C84.861076,27.026203 85.120575,25.744772 85.523857,24.215553 
z"/>
<path fill="#55B6A3" opacity="1.000000" stroke="none" 
	d="
M130.727600,34.776634 
	C129.868515,36.306973 128.625626,36.368286 127.156189,35.047462 
	C128.135254,34.218239 129.287949,34.309380 130.727600,34.776634 
z"/>
<path fill="#6CBB95" opacity="1.000000" stroke="none" 
	d="
M66.081337,159.637268 
	C63.668343,159.682022 63.768322,158.214386 64.659103,156.268188 
	C66.087563,156.828842 65.969826,158.102814 66.081337,159.637268 
z"/>
<path fill="#528F7A" opacity="1.000000" stroke="none" 
	d="
M28.727718,199.186478 
	C28.992584,200.230927 28.941875,201.367325 28.800816,202.926147 
	C26.553827,202.142639 26.761486,200.763428 28.727718,199.186478 
z"/>
<path fill="#528F7A" opacity="1.000000" stroke="none" 
	d="
M26.681377,155.762207 
	C27.613159,155.047287 28.684978,154.876862 29.855255,156.133041 
	C28.830193,157.218231 27.793039,156.889374 26.681377,155.762207 
z"/>
<path fill="#5BAF97" opacity="1.000000" stroke="none" 
	d="
M132.223999,204.123840 
	C132.799438,202.898651 133.689026,202.816666 134.861603,203.822418 
	C134.214691,204.735474 133.333588,204.739365 132.223999,204.123840 
z"/>
<path fill="#528F7A" opacity="1.000000" stroke="none" 
	d="
M156.081879,74.480370 
	C155.075302,75.106255 153.955399,75.233330 153.023895,73.744598 
	C154.083878,73.003090 155.149139,73.007515 156.081879,74.480370 
z"/>
<path fill="#528F7A" opacity="1.000000" stroke="none" 
	d="
M96.734467,16.144707 
	C96.770569,17.822851 95.651947,18.037893 93.928360,17.735081 
	C94.180237,16.508743 95.161560,16.058327 96.734467,16.144707 
z"/>
<path fill="#528F7A" opacity="1.000000" stroke="none" 
	d="
M23.798294,120.316795 
	C23.665314,121.943306 22.527788,122.028244 20.895130,121.668640 
	C21.193844,120.368713 22.236717,120.073532 23.798294,120.316795 
z"/>
<path fill="#528F7A" opacity="1.000000" stroke="none" 
	d="
M11.799458,126.198303 
	C13.101740,126.814018 13.087671,127.729630 12.030313,128.875702 
	C10.880870,128.198898 11.056826,127.302437 11.799458,126.198303 
z"/>
<path fill="#5BAF97" opacity="1.000000" stroke="none" 
	d="
M83.205673,129.759857 
	C81.806496,129.023605 81.644127,128.076218 83.270103,127.068588 
	C83.515594,127.842300 83.481712,128.690735 83.205673,129.759857 
z"/>
<path fill="#528F7A" opacity="1.000000" stroke="none" 
	d="
M138.354462,92.285004 
	C137.516739,92.644966 136.504990,92.743385 134.993042,92.716431 
	C135.517380,91.072227 136.744202,90.867615 138.354462,92.285004 
z"/>
<path fill="#528F7A" opacity="1.000000" stroke="none" 
	d="
M68.717407,60.320766 
	C68.833000,61.767433 67.834167,61.983101 66.352486,61.949074 
	C65.976555,61.605762 65.929108,61.266457 65.863907,60.672535 
	C66.668709,60.352383 67.491287,60.286854 68.717407,60.320766 
z"/>
<path fill="#2CA9B3" opacity="1.000000" stroke="none" 
	d="
M243.665146,88.266106 
	C243.674133,89.997444 242.472076,90.035034 240.792114,89.838699 
	C240.989471,88.534943 242.036682,88.136841 243.665146,88.266106 
z"/>
<path fill="#55B6A3" opacity="1.000000" stroke="none" 
	d="
M158.456848,20.538332 
	C159.058136,21.803143 158.721252,22.997459 157.014771,23.937813 
	C156.641144,22.752913 157.038147,21.584850 158.456848,20.538332 
z"/>
<path fill="#52AE9D" opacity="1.000000" stroke="none" 
	d="
M148.782593,123.741989 
	C147.756454,123.959465 146.493607,124.141792 146.044647,122.285957 
	C147.200134,121.894394 147.986389,122.585083 148.782593,123.741989 
z"/>
<path fill="#528F7A" opacity="1.000000" stroke="none" 
	d="
M12.248981,152.242035 
	C13.234223,151.964752 14.265712,151.967743 15.025024,153.230438 
	C13.913325,154.014481 12.976368,153.655106 12.248981,152.242035 
z"/>
<path fill="#59B19C" opacity="1.000000" stroke="none" 
	d="
M117.311218,109.930557 
	C117.115410,108.911270 117.532501,108.137192 119.106270,108.131821 
	C118.860146,108.734818 118.247345,109.318039 117.311218,109.930557 
z"/>
<path fill="#6CBB95" opacity="1.000000" stroke="none" 
	d="
M54.325848,220.767242 
	C54.180977,219.687912 54.730877,219.064743 56.226891,219.151382 
	C56.186733,220.018829 55.574738,220.595993 54.325848,220.767242 
z"/>
<path fill="#37A4A6" opacity="1.000000" stroke="none" 
	d="
M192.488251,193.635483 
	C192.926880,194.344910 193.030655,195.198456 191.861679,195.907562 
	C191.165863,195.103348 191.523163,194.401733 192.488251,193.635483 
z"/>
<path fill="#3FA4A1" opacity="1.000000" stroke="none" 
	d="
M179.964767,102.354111 
	C181.005066,102.087769 181.813965,102.454720 181.834808,104.067093 
	C181.198273,103.849388 180.599503,103.262321 179.964767,102.354111 
z"/>
<path fill="#528F7A" opacity="1.000000" stroke="none" 
	d="
M106.812866,13.280292 
	C106.876183,14.306601 106.504623,15.026769 105.183586,14.321003 
	C105.523193,13.803176 106.019157,13.493899 106.812866,13.280292 
z"/>
<path fill="#528F7A" opacity="1.000000" stroke="none" 
	d="
M33.568047,193.898224 
	C33.959881,194.843903 33.683086,195.631165 32.228695,195.909210 
	C31.933954,194.987534 32.458416,194.380661 33.568047,193.898224 
z"/>
<path fill="#6CBB95" opacity="1.000000" stroke="none" 
	d="
M64.616043,153.733398 
	C63.604797,153.755417 62.845425,153.419388 63.799015,152.131302 
	C64.249863,152.481155 64.480042,152.971146 64.616043,153.733398 
z"/>
<path fill="#3FA4A1" opacity="1.000000" stroke="none" 
	d="
M183.000076,106.333984 
	C184.084183,106.100891 184.856750,106.541466 184.791656,108.170212 
	C183.871552,108.183937 183.269424,107.584305 183.000076,106.333984 
z"/>
<path fill="#3FA4A1" opacity="1.000000" stroke="none" 
	d="
M230.484695,98.645325 
	C230.930206,99.421135 230.986771,100.316307 229.643692,100.931870 
	C229.131500,100.085609 229.499207,99.376259 230.484695,98.645325 
z"/>
<path fill="#5BAF97" opacity="1.000000" stroke="none" 
	d="
M100.704132,192.451294 
	C101.537186,192.064819 102.467834,192.083694 102.941650,193.577759 
	C102.043671,193.971756 101.383957,193.474747 100.704132,192.451294 
z"/>
<path fill="#5BAF97" opacity="1.000000" stroke="none" 
	d="
M97.799088,190.425812 
	C98.664185,190.057098 99.554008,190.161057 99.948647,191.640564 
	C99.033630,192.016083 98.414528,191.470581 97.799088,190.425812 
z"/>
<path fill="#37A4A6" opacity="1.000000" stroke="none" 
	d="
M224.092194,190.655823 
	C223.055634,190.912582 222.193542,190.578079 222.155365,188.918655 
	C222.805023,189.136063 223.425842,189.731354 224.092194,190.655823 
z"/>
<path fill="#2CA9B3" opacity="1.000000" stroke="none" 
	d="
M228.982452,112.357132 
	C230.055603,112.093422 230.846878,112.525963 230.827072,114.189598 
	C230.207260,113.942307 229.624176,113.311485 228.982452,112.357132 
z"/>
<path fill="#37A4A6" opacity="1.000000" stroke="none" 
	d="
M221.316467,187.511841 
	C220.391556,187.943771 219.444717,187.841461 219.063232,186.207642 
	C220.001266,185.881958 220.654907,186.439682 221.316467,187.511841 
z"/>
<path fill="#5BB8A1" opacity="1.000000" stroke="none" 
	d="
M115.509933,258.469543 
	C115.082100,257.588928 115.039734,256.583405 116.653854,256.067383 
	C117.082092,257.012909 116.535774,257.707275 115.509933,258.469543 
z"/>
<path fill="#3FA4A1" opacity="1.000000" stroke="none" 
	d="
M163.779694,88.463623 
	C164.573761,88.035927 165.424683,88.084702 165.951279,89.419022 
	C165.093002,89.892029 164.442322,89.451256 163.779694,88.463623 
z"/>
<path fill="#37A4A6" opacity="1.000000" stroke="none" 
	d="
M196.011673,214.332123 
	C196.880966,214.045029 197.668045,214.287064 197.963318,215.657440 
	C197.095718,215.913086 196.460037,215.456345 196.011673,214.332123 
z"/>
<path fill="#528F7A" opacity="1.000000" stroke="none" 
	d="
M102.823044,14.382768 
	C102.818298,15.431242 102.214653,15.941718 100.855011,15.696647 
	C100.949600,14.770289 101.562248,14.261339 102.823044,14.382768 
z"/>
<path fill="#2BA1AC" opacity="1.000000" stroke="none" 
	d="
M224.475662,80.287857 
	C224.059189,79.540123 224.021378,78.668755 225.319427,78.067825 
	C225.862350,78.912163 225.431458,79.571678 224.475662,80.287857 
z"/>
<path fill="#528F7A" opacity="1.000000" stroke="none" 
	d="
M32.102291,209.273865 
	C33.115864,209.068161 33.806973,209.511932 33.813141,210.964386 
	C33.205666,210.731796 32.651974,210.158951 32.102291,209.273865 
z"/>
<path fill="#58AD97" opacity="1.000000" stroke="none" 
	d="
M105.693329,80.156845 
	C105.871613,81.190742 105.403885,81.891800 103.886871,81.855652 
	C104.145264,81.268478 104.761009,80.713966 105.693329,80.156845 
z"/>
<path fill="#528F7A" opacity="1.000000" stroke="none" 
	d="
M30.160637,206.247650 
	C31.154778,206.079697 31.811325,206.545166 31.840342,207.933304 
	C30.940548,207.987869 30.328453,207.478607 30.160637,206.247650 
z"/>
<path fill="#58AD97" opacity="1.000000" stroke="none" 
	d="
M102.675049,82.019196 
	C102.901741,83.047653 102.507103,83.836128 100.922501,83.854530 
	C101.154404,83.235931 101.752800,82.642189 102.675049,82.019196 
z"/>
<path fill="#37A4A6" opacity="1.000000" stroke="none" 
	d="
M220.317535,215.982910 
	C220.067352,215.039642 220.375885,214.247467 221.841217,214.081161 
	C222.020523,214.991119 221.489288,215.602570 220.317535,215.982910 
z"/>
<path fill="#6CBB95" opacity="1.000000" stroke="none" 
	d="
M58.336742,218.925964 
	C58.142685,217.819794 58.639812,217.091156 60.246819,217.166245 
	C60.221249,218.060562 59.613071,218.684067 58.336742,218.925964 
z"/>
<path fill="#528F7A" opacity="1.000000" stroke="none" 
	d="
M90.780441,18.213814 
	C90.876289,19.301506 90.314087,19.895523 88.854828,19.672482 
	C89.170601,19.090685 89.821915,18.624531 90.780441,18.213814 
z"/>
<path fill="#6CBB95" opacity="1.000000" stroke="none" 
	d="
M71.872505,217.459869 
	C72.762840,217.057129 73.598953,217.207535 73.951065,218.657959 
	C73.060081,219.011841 72.441795,218.497589 71.872505,217.459869 
z"/>
<path fill="#37A4A6" opacity="1.000000" stroke="none" 
	d="
M200.593460,217.545319 
	C201.398651,217.082230 202.334488,217.010391 202.933197,218.461212 
	C202.029938,219.014236 201.352524,218.521698 200.593460,217.545319 
z"/>
<path fill="#528F7A" opacity="1.000000" stroke="none" 
	d="
M126.790848,95.308426 
	C126.849808,96.324951 126.492554,97.049049 125.185883,96.313293 
	C125.522896,95.806076 126.010643,95.507957 126.790848,95.308426 
z"/>
<path fill="#3FA4A1" opacity="1.000000" stroke="none" 
	d="
M189.977234,98.678375 
	C189.001831,98.935593 188.225327,98.588364 188.106598,97.094780 
	C189.027039,96.943672 189.616653,97.503487 189.977234,98.678375 
z"/>
<path fill="#37A4A6" opacity="1.000000" stroke="none" 
	d="
M215.317596,218.888657 
	C215.145309,217.776611 215.662140,217.084579 217.237305,217.212799 
	C217.196487,218.111725 216.599823,218.725037 215.317596,218.888657 
z"/>
<path fill="#528F7A" opacity="1.000000" stroke="none" 
	d="
M57.256355,56.366932 
	C56.454254,56.963604 55.618317,56.886292 54.997116,55.554077 
	C55.841423,55.024223 56.497135,55.488338 57.256355,56.366932 
z"/>
<path fill="#41ADA8" opacity="1.000000" stroke="none" 
	d="
M218.421860,54.504089 
	C217.602142,54.914017 216.636993,54.984913 216.075516,53.491447 
	C217.002625,52.972298 217.682373,53.482037 218.421860,54.504089 
z"/>
<path fill="#528F7A" opacity="1.000000" stroke="none" 
	d="
M63.283096,59.341831 
	C62.442505,59.946144 61.591785,59.875458 61.023228,58.458443 
	C61.893879,57.938362 62.573647,58.362896 63.283096,59.341831 
z"/>
<path fill="#57AE9A" opacity="1.000000" stroke="none" 
	d="
M99.339691,160.296417 
	C100.296684,160.162476 100.896782,160.634293 100.898926,161.970825 
	C100.081932,161.982834 99.503807,161.467697 99.339691,160.296417 
z"/>
<path fill="#528F7A" opacity="1.000000" stroke="none" 
	d="
M74.767281,56.213539 
	C74.938583,57.159901 74.501228,57.808739 73.183067,57.923985 
	C73.038826,57.009583 73.514061,56.385090 74.767281,56.213539 
z"/>
<path fill="#52AE9D" opacity="1.000000" stroke="none" 
	d="
M119.869781,132.196014 
	C121.048729,132.789825 120.946709,133.406540 119.668594,133.966217 
	C119.482040,133.456177 119.544632,132.896286 119.869781,132.196014 
z"/>
<path fill="#528F7A" opacity="1.000000" stroke="none" 
	d="
M37.066208,159.277344 
	C38.066570,159.090576 38.978821,159.274384 38.308029,160.808960 
	C37.744198,160.513214 37.398045,160.048630 37.066208,159.277344 
z"/>
<path fill="#528F7A" opacity="1.000000" stroke="none" 
	d="
M31.642429,156.849335 
	C32.174385,156.213196 32.876499,156.122635 33.811916,156.898941 
	C33.225491,158.026871 32.512047,157.567841 31.642429,156.849335 
z"/>
<path fill="#52AE9D" opacity="1.000000" stroke="none" 
	d="
M119.285515,142.274307 
	C120.259949,142.182465 121.090157,142.422501 120.324448,143.793915 
	C119.814148,143.485901 119.508987,143.024063 119.285515,142.274307 
z"/>
<path fill="#5BAF97" opacity="1.000000" stroke="none" 
	d="
M83.455826,146.757828 
	C82.456955,146.725769 81.852997,146.323502 82.695740,145.184296 
	C83.129982,145.533936 83.366348,146.020370 83.455826,146.757828 
z"/>
<path fill="#57AE9A" opacity="1.000000" stroke="none" 
	d="
M96.353775,154.304169 
	C97.406387,154.210892 97.951050,154.786774 97.846771,156.191315 
	C97.305107,155.893188 96.801949,155.252792 96.353775,154.304169 
z"/>
<path fill="#5BAF97" opacity="1.000000" stroke="none" 
	d="
M85.679245,155.689667 
	C84.589874,155.785034 84.041916,155.187027 84.189186,153.740326 
	C85.049393,153.818420 85.606476,154.434662 85.679245,155.689667 
z"/>
<path fill="#528F7A" opacity="1.000000" stroke="none" 
	d="
M11.588958,147.145935 
	C12.576571,147.316895 12.945271,147.827576 12.224970,148.836761 
	C11.300172,148.607605 11.104515,148.047211 11.588958,147.145935 
z"/>
<path fill="#52AE9D" opacity="1.000000" stroke="none" 
	d="
M145.303406,154.799652 
	C145.131714,153.781509 145.602036,153.105286 147.077972,153.131012 
	C146.823883,153.708038 146.220016,154.255905 145.303406,154.799652 
z"/>
<path fill="#57AE9A" opacity="1.000000" stroke="none" 
	d="
M114.641357,175.469788 
	C115.463509,175.075256 116.415413,175.047531 116.933121,176.546570 
	C116.000252,177.035782 115.370590,176.458420 114.641357,175.469788 
z"/>
<path fill="#5BAF97" opacity="1.000000" stroke="none" 
	d="
M91.005035,184.328186 
	C91.858536,184.051865 92.652077,184.265579 92.971939,185.611343 
	C92.129372,185.859406 91.471069,185.436066 91.005035,184.328186 
z"/>
<path fill="#2CA9B3" opacity="1.000000" stroke="none" 
	d="
M231.151581,116.314636 
	C232.140961,116.117821 232.854675,116.531380 232.882278,117.998741 
	C232.294708,117.771362 231.725601,117.199196 231.151581,116.314636 
z"/>
<path fill="#5EB99F" opacity="1.000000" stroke="none" 
	d="
M109.331551,67.762436 
	C109.193848,66.666420 109.761528,66.054565 111.263931,66.159958 
	C111.234665,67.057556 110.611549,67.630806 109.331551,67.762436 
z"/>
<path fill="#528F7A" opacity="1.000000" stroke="none" 
	d="
M17.842293,121.648140 
	C17.669626,122.590187 17.168781,122.968353 16.172939,122.273697 
	C16.386711,121.338043 16.959229,121.208176 17.842293,121.648140 
z"/>
<path fill="#6CBB95" opacity="1.000000" stroke="none" 
	d="
M75.873077,180.688904 
	C74.924034,180.885254 74.174301,180.546814 74.167313,179.089325 
	C75.089073,178.960220 75.587059,179.560013 75.873077,180.688904 
z"/>
<path fill="#52AE9D" opacity="1.000000" stroke="none" 
	d="
M127.688599,122.117050 
	C127.895325,123.100418 127.506981,123.836433 126.034729,123.888771 
	C126.251823,123.290581 126.813545,122.707535 127.688599,122.117050 
z"/>
<path fill="#528F7A" opacity="1.000000" stroke="none" 
	d="
M43.412674,179.272949 
	C44.519489,179.192932 45.149742,179.710770 44.259850,180.996521 
	C43.841366,180.651459 43.586578,180.169144 43.412674,179.272949 
z"/>
<path fill="#5BAF97" opacity="1.000000" stroke="none" 
	d="
M86.076904,178.315948 
	C87.044846,178.095535 87.812996,178.454895 87.890259,179.950760 
	C87.288696,179.742340 86.697914,179.185730 86.076904,178.315948 
z"/>
<path fill="#37A4A6" opacity="1.000000" stroke="none" 
	d="
M218.412384,185.457397 
	C217.568268,185.921692 216.612732,185.960999 216.062408,184.434509 
	C216.982361,183.948929 217.673935,184.436386 218.412384,185.457397 
z"/>
<path fill="#528F7A" opacity="1.000000" stroke="none" 
	d="
M42.155270,175.222778 
	C43.192120,175.111084 44.017216,175.403549 43.273476,176.828857 
	C42.730686,176.499985 42.406841,176.013107 42.155270,175.222778 
z"/>
<path fill="#3EA7A5" opacity="1.000000" stroke="none" 
	d="
M191.441116,175.226791 
	C191.047913,174.400040 191.107147,173.513321 192.540039,173.050293 
	C192.948242,173.938156 192.446686,174.573151 191.441116,175.226791 
z"/>
<path fill="#528F7A" opacity="1.000000" stroke="none" 
	d="
M40.273785,169.194397 
	C41.358063,169.147644 41.911488,169.734863 41.647980,171.153412 
	C40.746788,171.042648 40.226089,170.434845 40.273785,169.194397 
z"/>
<path fill="#57AE9A" opacity="1.000000" stroke="none" 
	d="
M116.265160,165.559967 
	C115.359421,165.931824 114.409355,165.827042 114.095398,164.182220 
	C114.753258,164.298035 115.433952,164.784882 116.265160,165.559967 
z"/>
<path fill="#528F7A" opacity="1.000000" stroke="none" 
	d="
M38.431656,163.155518 
	C39.459671,163.201141 39.935883,163.822342 39.681068,165.146423 
	C38.743618,165.042282 38.267426,164.411179 38.431656,163.155518 
z"/>
<path fill="#528F7A" opacity="1.000000" stroke="none" 
	d="
M53.242210,54.387096 
	C52.457195,54.962147 51.627178,54.910816 50.985352,53.632378 
	C51.835564,53.004517 52.507835,53.433582 53.242210,54.387096 
z"/>
<path fill="#E9F8F9" opacity="1.000000" stroke="none" 
	d="
M682.341492,162.745178 
	C677.335083,156.979630 679.973938,151.458618 685.981506,150.258072 
	C687.594971,149.935623 689.272949,149.950989 690.905701,149.707062 
	C696.895447,148.812210 698.477844,150.721893 696.584717,156.617920 
	C694.662048,162.605881 689.258545,165.073456 682.341492,162.745178 
z"/>
<path fill="#E3F5F7" opacity="1.000000" stroke="none" 
	d="
M550.865540,144.936050 
	C547.066223,144.931595 543.741211,144.950775 540.416809,144.914307 
	C538.283875,144.890900 536.576660,144.139069 537.431824,141.640656 
	C538.614014,138.186874 540.958191,135.533310 544.508850,134.439240 
	C548.195007,133.303406 551.825867,133.788651 554.758911,136.485855 
	C556.677551,138.250229 557.779114,140.718262 556.971069,143.265823 
	C556.056396,146.149368 553.277649,144.505173 550.865540,144.936050 
z"/>
<path fill="#28B5C6" opacity="1.000000" stroke="none" 
	d="
M579.422852,164.009003 
	C579.014038,162.589935 579.020752,161.160965 579.047607,159.304169 
	C580.672913,157.831802 581.666748,159.263046 583.177612,160.015610 
	C583.856323,160.522522 584.172791,160.885849 584.556763,161.642426 
	C584.722168,162.484299 584.644714,162.960709 584.233032,163.708618 
	C584.004883,163.996078 584.000000,163.999695 583.997559,164.002167 
	C582.609558,164.002792 581.223938,164.000946 579.422852,164.009003 
z"/>
<path fill="#F2FAFC" opacity="1.000000" stroke="none" 
	d="
M584.323364,162.262726 
	C583.915527,161.658875 583.730652,161.396439 583.230835,161.097229 
	C581.198914,158.920654 579.763794,156.686630 579.874390,153.408020 
	C579.864746,151.315033 579.911865,149.584106 579.883301,147.425995 
	C580.118164,146.457458 580.593079,145.950623 580.715088,145.369675 
	C582.798340,135.451385 587.291870,132.622955 597.587769,135.036270 
	C597.992249,135.018631 598.279907,135.207321 598.449463,135.236130 
	C607.510254,140.940598 604.766602,162.304062 594.423279,164.399612 
	C590.598389,165.174515 587.622864,164.632553 584.323364,162.262726 
z"/>
<path fill="#5CC7D4" opacity="1.000000" stroke="none" 
	d="
M579.554749,153.309631 
	C580.861084,155.451324 581.904602,157.856689 582.978394,160.628601 
	C581.367981,161.255386 580.992676,159.383041 579.389221,158.957489 
	C579.142395,157.108658 579.217163,155.340988 579.554749,153.309631 
z"/>
<path fill="#5CC7D4" opacity="1.000000" stroke="none" 
	d="
M583.981995,162.321060 
	C589.292542,164.113770 594.556213,165.446869 599.018311,160.408783 
	C603.605896,155.229004 604.285339,144.675903 600.575012,138.361755 
	C600.074829,137.510620 599.429077,136.745010 598.734863,135.602371 
	C600.760437,134.761795 601.538635,136.246948 602.358765,137.764389 
	C606.545044,145.509781 605.818970,153.178833 601.574158,160.523651 
	C598.648804,165.585373 591.485474,166.886597 584.383789,164.038361 
	C583.988647,163.549225 583.972473,163.102371 583.981995,162.321060 
z"/>
<path fill="#0C2039" opacity="1.000000" stroke="none" 
	d="
M315.392029,62.372520 
	C322.947968,65.411316 322.425781,74.009048 317.938904,76.922760 
	C314.876770,78.911263 311.737000,79.262062 308.725342,76.964180 
	C305.892548,74.802757 304.170990,71.862167 305.460114,68.316399 
	C307.015350,64.038673 310.131866,61.574665 315.392029,62.372520 
z"/>
<path fill="#0C2038" opacity="1.000000" stroke="none" 
	d="
M305.645874,204.075394 
	C304.030426,198.777695 306.420746,195.701920 310.587738,193.702148 
	C314.151520,191.991852 317.119690,193.392197 319.423004,196.197250 
	C322.544891,199.999222 321.673737,205.064026 317.573639,207.976746 
	C313.748901,210.693848 309.401154,209.381927 305.645874,204.075394 
z"/>
<path fill="#0C2139" opacity="1.000000" stroke="none" 
	d="
M313.727600,140.347107 
	C310.756348,145.559464 307.047638,147.368149 303.117676,145.478745 
	C299.307312,143.646820 297.357819,140.530380 298.244202,136.181274 
	C299.027740,132.336685 302.800049,129.670685 306.703247,129.986420 
	C311.467865,130.371857 314.037659,133.955017 313.727600,140.347107 
z"/>
<path fill="#34B5BB" opacity="1.000000" stroke="none" 
	d="
M260.518219,197.998962 
	C264.668274,199.063461 262.305328,202.104782 262.988464,204.570526 
	C252.362228,204.993469 241.743942,204.980515 231.125763,205.003555 
	C229.322876,205.007462 227.458099,204.676102 225.391068,205.847076 
	C223.449417,203.282928 223.817978,200.521210 224.963898,197.359421 
	C227.105591,198.340561 229.466492,197.994812 231.762787,197.997742 
	C241.192200,198.009750 250.621658,197.999527 260.518219,197.998962 
z"/>
<path fill="#0F2137" opacity="1.000000" stroke="none" 
	d="
M217.070770,198.677490 
	C217.076996,200.347534 217.020065,201.745026 216.958603,203.562500 
	C216.953888,204.589111 216.772522,205.130936 216.151306,205.783142 
	C214.489914,207.016998 213.054169,208.063873 211.322632,209.275726 
	C209.970657,209.920685 208.881592,210.030716 207.366211,209.576920 
	C203.201996,207.436020 200.321136,204.797287 201.088135,200.055420 
	C201.869156,195.227051 205.353287,193.256546 210.087616,192.372528 
	C211.334534,192.298599 211.864029,193.011337 212.766937,193.694824 
	C213.898453,194.780197 214.787796,195.665588 215.904633,196.768448 
	C216.476456,197.426544 216.823517,197.865494 217.070770,198.677490 
z"/>
<path fill="#37A4A6" opacity="1.000000" stroke="none" 
	d="
M207.069092,209.719025 
	C208.061020,209.363007 209.145767,209.303604 210.628677,209.342438 
	C210.030579,211.595520 208.687347,211.417953 207.069092,209.719025 
z"/>
<path fill="#37A4A6" opacity="1.000000" stroke="none" 
	d="
M212.936371,193.542450 
	C212.061050,193.962219 211.316620,193.583954 210.569519,192.568375 
	C211.410782,192.083435 212.364471,192.021744 212.936371,193.542450 
z"/>
<path fill="#37A4A6" opacity="1.000000" stroke="none" 
	d="
M216.227753,205.953857 
	C216.102127,205.414200 216.278595,204.858276 216.704559,204.142426 
	C218.134079,204.920898 217.814148,205.533875 216.227753,205.953857 
z"/>
<path fill="#37A4A6" opacity="1.000000" stroke="none" 
	d="
M217.342194,198.778320 
	C216.796875,198.494934 216.459854,198.039841 216.127472,197.285339 
	C217.039017,197.146240 218.038986,197.225098 217.342194,198.778320 
z"/>
<path fill="#0E2036" opacity="1.000000" stroke="none" 
	d="
M212.280579,77.982498 
	C209.446136,78.048515 206.801025,78.712753 204.450409,76.848030 
	C199.204025,72.686150 200.036270,66.841049 206.798492,62.256691 
	C208.069351,62.009129 209.139816,62.034489 210.610199,62.019123 
	C211.583069,62.014645 212.108871,62.182755 212.785507,62.713795 
	C213.886734,63.785004 214.771240,64.677704 215.886719,65.784729 
	C216.473663,66.428139 216.818130,66.864464 217.057556,67.675766 
	C217.461578,72.085701 216.043182,75.400574 212.280579,77.982498 
z"/>
<path fill="#41ADA8" opacity="1.000000" stroke="none" 
	d="
M217.325287,67.776779 
	C216.781067,67.496536 216.445892,67.045044 216.114197,66.296303 
	C217.012558,66.161835 218.043320,66.204773 217.325287,67.776779 
z"/>
<path fill="#41ADA8" opacity="1.000000" stroke="none" 
	d="
M212.968933,62.609936 
	C212.442780,62.754459 211.883331,62.616623 211.167023,62.228592 
	C211.866638,60.911102 212.491165,61.122852 212.968933,62.609936 
z"/>
<path fill="#102035" opacity="1.000000" stroke="none" 
	d="
M135.366058,146.434845 
	C133.399857,145.044205 131.458221,144.286713 130.117737,142.254593 
	C129.530289,141.577225 129.187195,141.135269 128.971069,140.308228 
	C128.955856,138.948074 128.988693,137.864670 128.976578,136.376846 
	C128.999390,135.389618 129.203339,134.863022 129.780304,134.203522 
	C131.190002,132.403503 132.665054,131.118942 134.714020,129.999084 
	C136.359558,128.959106 137.785049,128.856689 139.634003,129.747665 
	C141.107483,130.917114 142.214371,131.828094 143.583313,132.899292 
	C146.548141,135.987320 146.503571,139.102509 144.181580,142.654633 
	C142.317383,143.791306 141.498825,145.670639 139.300644,146.204697 
	C137.953751,146.905365 136.867889,147.041321 135.366058,146.434845 
z"/>
<path fill="#52AE9D" opacity="1.000000" stroke="none" 
	d="
M144.254639,142.916321 
	C145.101578,139.930893 145.885559,136.900208 143.917526,133.448975 
	C147.718140,135.792358 147.919846,138.331039 144.254639,142.916321 
z"/>
<path fill="#52AE9D" opacity="1.000000" stroke="none" 
	d="
M139.937195,129.648254 
	C138.606491,129.990311 137.212402,129.974472 135.405518,129.889282 
	C136.339706,127.062111 138.012039,127.303238 139.937195,129.648254 
z"/>
<path fill="#52AE9D" opacity="1.000000" stroke="none" 
	d="
M135.065430,146.552933 
	C136.069183,146.218994 137.146057,146.200821 138.616180,146.280975 
	C137.984634,148.642426 136.652145,148.471725 135.065430,146.552933 
z"/>
<path fill="#52AE9D" opacity="1.000000" stroke="none" 
	d="
M129.694611,134.026611 
	C129.798157,134.548401 129.613327,135.096481 129.180054,135.808502 
	C127.853600,135.026932 128.221817,134.439011 129.694611,134.026611 
z"/>
<path fill="#52AE9D" opacity="1.000000" stroke="none" 
	d="
M128.706726,140.201263 
	C129.252762,140.492035 129.582489,140.952591 129.904907,141.708679 
	C128.987366,141.839935 127.940796,141.793167 128.706726,140.201263 
z"/>
<path fill="#0D2139" opacity="1.000000" stroke="none" 
	d="
M246.648987,98.162422 
	C251.547958,99.091164 254.836823,101.708618 254.856522,106.464874 
	C254.877213,111.464127 251.534103,114.180504 246.350037,115.160645 
	C242.867203,113.886292 239.659485,112.610184 238.768387,108.347534 
	C238.270889,107.275497 238.110107,106.519463 238.507614,105.353561 
	C240.238708,101.643242 242.065277,98.584373 246.648987,98.162422 
z"/>
<path fill="#2CA9B3" opacity="1.000000" stroke="none" 
	d="
M238.376282,105.059219 
	C238.723175,105.751038 238.776733,106.509781 238.728516,107.638077 
	C236.713104,107.374077 236.425720,106.433609 238.376282,105.059219 
z"/>
<path fill="#0D2038" opacity="1.000000" stroke="none" 
	d="
M245.768524,158.302216 
	C253.662949,159.949539 256.592041,164.349426 254.090958,170.153610 
	C252.510193,173.822037 249.546829,175.078674 245.398254,175.081589 
	C241.293808,173.113251 238.421982,170.562119 238.939438,165.795380 
	C239.376205,161.771881 241.970093,159.723755 245.768524,158.302216 
z"/>
<path fill="#3CB7B8" opacity="1.000000" stroke="none" 
	d="
M240.994141,141.591034 
	C227.973602,142.003845 214.956345,142.005234 201.470764,141.998779 
	C201.001465,139.642746 201.000488,137.294540 200.999252,134.510529 
	C214.349350,134.058823 227.699722,134.042938 241.516571,134.045380 
	C241.654526,136.435669 241.325974,138.807648 240.994141,141.591034 
z"/>
</svg>