<?xml version="1.0" encoding="UTF-8" standalone="no" ?>
<!DOCTYPE svg PUBLIC "-//W3C//DTD SVG 1.1//EN" "http://www.w3.org/Graphics/SVG/1.1/DTD/svg11.dtd">
<svg xmlns="http://www.w3.org/2000/svg" xmlns:xlink="http://www.w3.org/1999/xlink" version="1.1" width="1080" height="1080" viewBox="0 0 1080 1080" xml:space="preserve">
<desc>Created with Fabric.js 5.2.4</desc>
<defs>
</defs>
<g transform="matrix(1 0 0 1 540 540)" id="30fde4e3-c097-48a2-98ed-66c664bcb037"  >
</g>
<g transform="matrix(1 0 0 1 540 540)" id="2b03bf7f-7d3f-41ee-b8c8-2440eabde87c"  >
<rect style="stroke: none; stroke-width: 1; stroke-dasharray: none; stroke-linecap: butt; stroke-dashoffset: 0; stroke-linejoin: miter; stroke-miterlimit: 4; fill: rgb(255,255,255); fill-rule: nonzero; opacity: 1; visibility: hidden;" vector-effect="non-scaling-stroke"  x="-540" y="-540" rx="0" ry="0" width="1080" height="1080" />
</g>
<g transform="matrix(2.06 0 0 2.06 539.49 539.49)"  >
<path style="stroke: none; stroke-width: 1; stroke-dasharray: none; stroke-linecap: butt; stroke-dashoffset: 0; stroke-linejoin: miter; stroke-miterlimit: 4; fill: rgb(0,163,108); fill-rule: evenodd; opacity: 1;" vector-effect="non-scaling-stroke"  transform=" translate(-256, -256)" d="M 105 0 L 407 0 C 464.928 0.155 511.845 47.072 512 104.996 L 512 407 C 511.845 464.926 464.928 511.844 407.004 511.998 L 105 512 C 47.074 511.844 0.156 464.926 0.002 407.003 L 0 105 C 0.156 47.072 47.074 0.155 104.997 0 L 105 0 z" stroke-linecap="round" />
</g>
<g transform="matrix(2.06 0 0 2.06 539.68 539.75)"  >
<path style="stroke: none; stroke-width: 1; stroke-dasharray: none; stroke-linecap: butt; stroke-dashoffset: 0; stroke-linejoin: miter; stroke-miterlimit: 4; fill: rgb(255,255,255); fill-rule: nonzero; opacity: 1;" vector-effect="non-scaling-stroke"  transform=" translate(-256, -256)" d="M 368.896 153.381 C 347.5190570579905 143.60439703081002 324.9549165606479 136.66652392011454 301.778 132.744 C 298.6197335387039 138.4161855965452 295.7591883445176 144.24909426263687 293.2080000000001 150.21899999999997 C 280.87938425285205 148.35942281060244 268.4290701574001 147.42348489701837 255.96099999999996 147.41899999999998 C 243.514 147.41899999999998 231.00600000000003 148.36499999999998 218.711 150.195 C 216.20000000000002 144.268 213.28400000000002 138.391 210.119 132.74099999999999 C 186.94077949392238 136.7009637776584 164.37459711753763 143.65270461638164 142.98600000000002 153.4219999999999 C 100.50699999999999 216.263 88.99499999999999 277.534 94.75099999999999 337.935 C 119.62517193428265 356.30711126240914 147.46418823187423 370.2800597156106 177.0589999999999 379.247 C 183.696 370.288 189.641 360.75 194.689 350.824 C 185.05803792873854 347.23612479850834 175.7642896969428 342.80108067795567 166.917 337.571 C 169.245 335.88300000000004 171.522 334.144 173.722 332.454 C 199.448 344.53700000000003 227.558 350.839 255.99900000000002 350.839 C 284.44100000000003 350.839 312.55 344.537 338.278 332.452 C 340.504 334.269 342.781 336.009 345.083 337.569 C 336.2177235956404 342.80865500249917 326.90726191974653 347.25557752023457 317.26000000000005 350.85799999999995 C 322.32531321494764 360.80508636246714 328.2233594311067 370.30565425645597 334.8910000000001 379.2579999999999 C 364.51277370172016 370.3195163352554 392.3741805999383 356.3470358290706 417.2540000000001 337.953 L 417.24700000000007 337.96 C 424.0010000000001 267.91499999999996 405.70900000000006 207.207 368.8960000000001 153.38099999999997 z M 201.968 300.789 C 185.928 300.789 172.676 286.23199999999997 172.676 268.32399999999996 C 172.676 250.41599999999994 185.46699999999998 235.73199999999997 201.91699999999997 235.73199999999997 C 218.36699999999996 235.73199999999997 231.51599999999996 250.41599999999997 231.23499999999999 268.32399999999996 C 230.95299999999997 286.23199999999997 218.31599999999997 300.789 201.968 300.789 z M 310.03 300.789 C 293.964 300.789 280.763 286.23199999999997 280.763 268.32399999999996 C 280.763 250.41599999999994 293.554 235.73199999999997 310.03 235.73199999999997 C 326.505 235.73199999999997 339.55199999999996 250.41599999999997 339.27099999999996 268.32399999999996 C 338.98999999999995 286.23199999999997 326.37699999999995 300.789 310.03 300.789 z" stroke-linecap="round" />
</g>
</svg>