<?xml version="1.0" encoding="UTF-8" standalone="no" ?>
<!DOCTYPE svg PUBLIC "-//W3C//DTD SVG 1.1//EN" "http://www.w3.org/Graphics/SVG/1.1/DTD/svg11.dtd">
<svg xmlns="http://www.w3.org/2000/svg" xmlns:xlink="http://www.w3.org/1999/xlink" version="1.1" width="1080" height="1080" viewBox="0 0 1080 1080" xml:space="preserve">
<desc>Created with Fabric.js 5.2.4</desc>
<defs>
</defs>
<rect x="0" y="0" width="100%" height="100%" fill="transparent"></rect>
<g transform="matrix(1 0 0 1 540 540)" id="8900a814-3ae5-4aed-be7d-d0f2c16e7c1b"  >
</g>
<g transform="matrix(1 0 0 1 540 540)" id="09e003b6-4221-4ab1-bbbc-4385ecfc1900"  >
<rect style="stroke: none; stroke-width: 1; stroke-dasharray: none; stroke-linecap: butt; stroke-dashoffset: 0; stroke-linejoin: miter; stroke-miterlimit: 4; fill: rgb(255,255,255); fill-rule: nonzero; opacity: 1; visibility: hidden;" vector-effect="non-scaling-stroke"  x="-540" y="-540" rx="0" ry="0" width="1080" height="1080" />
</g>
<g transform="matrix(40.3 0 0 40.3 540 540)"  >
<path style="stroke: none; stroke-width: 1; stroke-dasharray: none; stroke-linecap: butt; stroke-dashoffset: 0; stroke-linejoin: miter; stroke-miterlimit: 4; fill: none; fill-rule: nonzero; opacity: 1;" vector-effect="non-scaling-stroke"  transform=" translate(-12, -12)" d="M 0 0 L 24 0 L 24 24 L 0 24 z" stroke-linecap="round" />
</g>
<g transform="matrix(1 0 0 1 540 540)"  >
<path style="stroke: none; stroke-width: 1; stroke-dasharray: none; stroke-linecap: butt; stroke-dashoffset: 0; stroke-linejoin: miter; stroke-miterlimit: 4; fill: none; fill-rule: nonzero; opacity: 1;" vector-effect="non-scaling-stroke"  transform=" translate(-12, -12)" d="M 0 0 L 24 0 L 24 24 L 0 24 z" stroke-linecap="round" />
</g>
<g transform="matrix(1 0 0 1 540 540)"  >
<path style="stroke: none; stroke-width: 1; stroke-dasharray: none; stroke-linecap: butt; stroke-dashoffset: 0; stroke-linejoin: miter; stroke-miterlimit: 4; fill: none; fill-rule: nonzero; opacity: 1;" vector-effect="non-scaling-stroke"  transform=" translate(-12, -12)" d="M 0 0 L 24 0 L 24 24 L 0 24 z" stroke-linecap="round" />
</g>
<g transform="matrix(50.9 0 0 50.9 540 540)"  >
<path style="stroke: none; stroke-width: 1; stroke-dasharray: none; stroke-linecap: butt; stroke-dashoffset: 0; stroke-linejoin: miter; stroke-miterlimit: 4; fill: rgb(0,163,108); fill-rule: nonzero; opacity: 1;" vector-effect="non-scaling-stroke"  transform=" translate(-12, -12)" d="M 12 2 C 14.717 2 15.056000000000001 2.01 16.122 2.06 C 17.187 2.11 17.912 2.277 18.55 2.525 C 19.21 2.779 19.766000000000002 3.1229999999999998 20.322 3.678 C 20.830493669192634 4.17789595911168 21.223953618602263 4.782588960285886 21.474999999999998 5.450000000000003 C 21.721999999999998 6.087 21.889999999999997 6.813000000000001 21.939999999999998 7.878 C 21.987 8.944 21.999999999999996 9.283 21.999999999999996 12 C 21.999999999999996 14.717 21.989999999999995 15.056000000000001 21.939999999999998 16.122 C 21.889999999999997 17.187 21.721999999999998 17.912 21.474999999999998 18.55 C 21.224676605974807 19.217776504730804 20.831120688948587 19.822616994731202 20.322 20.322 C 19.821961451443347 20.830319243636712 19.217309331405204 21.223752592623157 18.55 21.474999999999998 C 17.913 21.721999999999998 17.187 21.889999999999997 16.122 21.939999999999998 C 15.056 21.987 14.717 21.999999999999996 12 21.999999999999996 C 9.283 21.999999999999996 8.943999999999999 21.989999999999995 7.878 21.939999999999998 C 6.813000000000001 21.889999999999997 6.088 21.721999999999998 5.45 21.474999999999998 C 4.782326176963185 21.22447337172582 4.177527219345206 20.830944478873942 3.6780000000000004 20.322 C 3.1694064361044325 19.822185723417014 2.77593123363285 19.217469280416456 2.5249999999999995 18.55 C 2.277 17.913 2.11 17.187 2.06 16.122 C 2.013 15.056 2 14.717 2 12 C 2 9.283 2.01 8.943999999999999 2.06 7.878 C 2.11 6.812 2.277 6.088 2.525 5.45 C 2.775236102505078 4.782179404691866 3.1688036380971596 4.1773210585781015 3.6779999999999986 3.6780000000000004 C 4.177670975720428 3.1692312287536515 4.7824285847020995 2.7757292405167067 5.449999999999998 2.5250000000000004 C 6.088 2.277 6.812 2.11 7.878 2.06 C 8.944 2.013 9.283 2 12 2 z M 12 7 C 9.238576250846034 7 7 9.238576250846034 7 12 C 7 14.761423749153966 9.238576250846034 17 12 17 C 14.761423749153966 17 17 14.761423749153966 17 12 C 17 9.238576250846034 14.761423749153966 7 12 7 z M 18.5 6.75 C 18.5 6.0596440627115085 17.94035593728849 5.5 17.25 5.5 C 16.55964406271151 5.5 16 6.0596440627115085 16 6.75 C 16 7.4403559372884915 16.55964406271151 8 17.25 8 C 17.94035593728849 8 18.5 7.4403559372884915 18.5 6.75 z M 12 9 C 13.65685424949238 9 15 10.343145750507619 15 12 C 15 13.65685424949238 13.656854249492381 15 12.000000000000002 15 C 10.34314575050762 15 9 13.65685424949238 9 12 C 9 10.34314575050762 10.34314575050762 9 12 9 z" stroke-linecap="round" />
</g>
</svg>