<?xml version="1.0" encoding="UTF-8" standalone="no" ?>
<!DOCTYPE svg PUBLIC "-//W3C//DTD SVG 1.1//EN" "http://www.w3.org/Graphics/SVG/1.1/DTD/svg11.dtd">
<svg xmlns="http://www.w3.org/2000/svg" xmlns:xlink="http://www.w3.org/1999/xlink" version="1.1" width="1080" height="1080" viewBox="0 0 1080 1080" xml:space="preserve">
<desc>Created with Fabric.js 5.2.4</desc>
<defs>
</defs>
<rect x="0" y="0" width="100%" height="100%" fill="transparent"></rect>
<g transform="matrix(1 0 0 1 540 540)" id="6b533c81-6ba7-4c2a-8748-777157cf3314"  >
<rect style="stroke: none; stroke-width: 1; stroke-dasharray: none; stroke-linecap: butt; stroke-dashoffset: 0; stroke-linejoin: miter; stroke-miterlimit: 4; fill: rgb(255,255,255); fill-rule: nonzero; opacity: 1; visibility: hidden;" vector-effect="non-scaling-stroke"  x="-540" y="-540" rx="0" ry="0" width="1080" height="1080" />
</g>
<g transform="matrix(1 0 0 1 540 540)" id="8b70c2f9-9a83-459e-9f49-e32de9538c4d"  >
</g>
<g transform="matrix(50.77 0 0 50.77 540 540)" id="3172d559-afec-4c0c-827a-9302b6b2951f"  >
<path style="stroke: rgb(0,0,0); stroke-width: 0; stroke-dasharray: none; stroke-linecap: butt; stroke-dashoffset: 0; stroke-linejoin: miter; stroke-miterlimit: 4; fill: rgb(0,163,108); fill-rule: nonzero; opacity: 1;" vector-effect="non-scaling-stroke"  transform=" translate(-12, -12.55)" d="M 19 9.54932 C 19 8.63006 18.8189 7.71981 18.4672 6.87053 C 18.1154 6.02125 17.5998 5.24958 16.9497 4.59957 C 16.2997 3.94956 15.5281 3.43394 14.6788 3.08216 C 13.8295 2.73038 12.9193 2.54932 12 2.54932 C 11.0807 2.54932 10.1705 2.73038 9.32122 3.08216 C 8.47194 3.43394 7.70026 3.94956 7.05025 4.59957 C 6.40024 5.24958 5.88463 6.02125 5.53284 6.87053 C 5.18106 7.71981 5 8.63006 5 9.54932 C 5 10.9363 5.41 12.2263 6.105 13.3143 L 6.097 13.3143 C 8.457 17.0093 12 22.5493 12 22.5493 L 17.903 13.3143 L 17.896 13.3143 C 18.6164 12.1907 18.9995 10.8841 19 9.54932 Z M 12 12.5493 C 11.2044 12.5493 10.4413 12.2332 9.87868 11.6706 C 9.31607 11.108 9 10.345 9 9.54932 C 9 8.75367 9.31607 7.99061 9.87868 7.428 C 10.4413 6.86539 11.2044 6.54932 12 6.54932 C 12.7956 6.54932 13.5587 6.86539 14.1213 7.428 C 14.6839 7.99061 15 8.75367 15 9.54932 C 15 10.345 14.6839 11.108 14.1213 11.6706 C 13.5587 12.2332 12.7956 12.5493 12 12.5493 Z" stroke-linecap="round" />
</g>
</svg>