<svg version="1.1" id="Layer_1" xmlns="http://www.w3.org/2000/svg" xmlns:xlink="http://www.w3.org/1999/xlink" x="0px" y="0px"
	 width="100%" viewBox="0 0 484 157" enable-background="new 0 0 484 157" xml:space="preserve">
<path fill="#FEFFFF" opacity="1.000000" stroke="none" 
	d="
M207.000000,1.000000 
	C299.609772,1.000000 392.219574,1.000000 484.914673,1.000000 
	C484.914673,53.244202 484.914673,105.488586 484.914673,158.000000 
	C392.645935,158.000000 300.291626,158.000000 207.469818,157.531342 
	C207.001541,105.041786 207.000763,53.020893 207.000000,1.000000 
M225.598312,75.251610 
	C229.323776,83.555069 233.049255,91.858528 236.774734,100.161987 
	C237.350266,100.073486 237.925797,99.984985 238.501328,99.896484 
	C242.044113,92.033264 245.586884,84.170036 249.129669,76.306808 
	C250.257843,83.333382 250.160477,90.071854 250.363052,96.801300 
	C250.393372,97.808807 251.829819,98.774002 252.615799,99.758774 
	C253.362442,98.911102 254.746124,98.072754 254.758682,97.214355 
	C254.908951,86.937752 254.855728,76.658180 254.855728,66.532738 
	C251.166489,65.102089 249.228180,65.991653 247.840515,69.319138 
	C244.702606,76.843590 241.218735,84.223770 237.524521,92.443764 
	C234.008850,84.316422 230.755829,77.222404 227.884033,69.977272 
	C226.453690,66.368675 224.469696,64.881020 220.180466,66.502968 
	C220.180466,76.561661 220.125366,86.836586 220.287079,97.108086 
	C220.299759,97.913086 221.825134,98.694267 222.647476,99.486519 
	C223.358078,98.574524 224.679153,97.664719 224.682434,96.750183 
	C224.708054,89.611244 224.480438,82.471397 224.767624,75.085144 
	C224.880493,74.961876 224.993378,74.838600 225.598312,75.251610 
M308.284943,88.682823 
	C307.910339,89.503326 307.535706,90.323830 306.600464,92.372124 
	C305.121155,87.024963 304.139618,82.887665 302.782684,78.877380 
	C302.276550,77.381439 300.893829,76.182076 299.910828,74.847481 
	C298.760284,76.195328 297.146088,77.365868 296.549652,78.925606 
	C295.009247,82.953606 293.918427,87.153534 292.648041,91.284798 
	C292.188477,91.225883 291.728912,91.166969 291.269318,91.108063 
	C290.093384,86.670677 289.122986,82.161987 287.622772,77.837097 
	C287.140350,76.446281 285.260834,75.540077 284.020477,74.412163 
	C283.553436,74.802353 283.086395,75.192543 282.619354,75.582733 
	C284.611084,82.397903 286.495697,89.247719 288.680237,96.000534 
	C289.146210,97.440849 290.702362,98.528488 291.756287,99.778603 
	C292.830078,98.532158 294.342194,97.453194 294.894531,96.007530 
	C296.482941,91.850098 297.683411,87.544441 299.036316,83.297028 
	C301.392822,88.091049 302.580231,92.751999 304.067383,97.315247 
	C304.393677,98.316437 305.738800,99.540352 306.701935,99.621048 
	C307.639160,99.699585 309.312378,98.636879 309.589752,97.742554 
	C311.879974,90.358688 313.920624,82.897415 316.036865,75.459587 
	C315.503174,75.090263 314.969452,74.720947 314.435760,74.351631 
	C313.344421,75.483406 311.752228,76.433029 311.261261,77.783134 
	C310.071259,81.055443 309.394104,84.514229 308.284943,88.682823 
M362.997009,76.124809 
	C358.753815,75.858620 354.510620,75.592430 349.602875,75.284554 
	C349.602875,72.536438 349.602875,68.455269 349.602875,64.374092 
	C349.120941,64.068977 348.639008,63.763859 348.157074,63.458744 
	C347.100342,64.505966 345.150635,65.532463 345.125763,66.603622 
	C344.890594,76.738937 344.916779,86.882996 345.093079,97.020630 
	C345.109070,97.941223 346.696869,98.834480 347.554779,99.740433 
	C350.089935,97.197800 352.608307,99.455116 355.153046,99.727318 
	C359.465820,100.188629 363.028656,98.823738 365.397522,95.010666 
	C368.935455,89.315781 368.197998,81.773781 362.997009,76.124809 
M407.583862,87.032959 
	C404.917816,89.984367 403.994965,93.771988 406.712006,96.460762 
	C408.718201,98.446075 412.421722,99.215706 415.461151,99.484276 
	C417.536987,99.667686 419.743835,97.124481 422.012726,99.656944 
	C422.135529,99.793983 424.667358,98.521332 424.668304,97.902718 
	C424.677490,91.941086 424.813690,85.914490 423.933685,80.053604 
	C423.643402,78.120651 420.584595,75.316650 418.650421,75.197189 
	C415.113617,74.978737 411.460083,76.419304 407.901520,77.345634 
	C407.685028,77.401993 407.873413,79.013779 407.873413,80.006744 
	C418.354340,77.560051 419.802490,78.008644 419.584808,83.024239 
	C415.704803,84.222816 411.943481,85.384735 407.583862,87.032959 
M281.350800,75.573547 
	C278.405548,73.713219 277.243225,75.376083 276.368347,77.973412 
	C274.691803,82.950607 272.902771,87.889931 271.160431,92.844971 
	C268.213257,87.961754 266.436310,83.052551 264.809845,78.093994 
	C263.877411,75.251221 262.448425,73.894646 259.234192,75.553902 
	C261.947937,82.820953 264.684052,89.950729 267.264709,97.136330 
	C268.691132,101.108093 266.502686,105.396690 262.783356,106.826820 
	C261.699554,107.243553 260.875061,108.334702 259.931671,109.116707 
	C261.310852,109.603836 263.383850,110.915024 263.950928,110.437576 
	C266.620636,108.189827 269.764771,105.845955 271.112823,102.813271 
	C274.955750,94.167786 278.007507,85.170631 281.350800,75.573547 
M331.308624,99.788429 
	C337.322449,98.932304 338.000397,98.373131 337.883942,94.365082 
	C327.016907,97.383545 323.476562,95.944397 324.108887,88.098640 
	C329.097595,88.098640 334.154205,88.098640 339.078217,88.098640 
	C340.433014,80.083679 337.357788,75.283020 331.111389,74.845688 
	C323.914551,74.341820 319.018402,78.903564 318.534546,86.563568 
	C318.026367,94.608139 322.376617,99.428108 331.308624,99.788429 
M454.851379,99.757957 
	C456.509094,99.720596 458.215149,99.921471 459.814606,99.596985 
	C463.295074,98.890884 466.691406,97.075500 466.294250,93.273735 
	C466.042114,90.860062 463.563995,88.468445 461.629028,86.518539 
	C460.433838,85.314095 458.219574,85.184250 456.777649,84.138023 
	C455.879883,83.486656 454.976318,81.907028 455.165009,80.961433 
	C455.348480,80.041977 456.890076,78.807327 457.890778,78.754089 
	C460.283142,78.626823 462.708191,79.113419 466.956573,79.533966 
	C465.080841,77.362373 464.184937,75.343414 463.002960,75.159096 
	C460.466888,74.763634 457.448059,74.620827 455.256866,75.679016 
	C453.182861,76.680611 450.772949,79.261971 450.616455,81.309456 
	C450.464447,83.298286 452.748077,85.714302 454.423218,87.513390 
	C455.465515,88.632729 457.549500,88.714729 458.826996,89.701286 
	C460.115936,90.696693 460.986115,92.234360 462.039764,93.534454 
	C460.424591,94.369568 458.868378,95.712685 457.178986,95.908890 
	C455.149261,96.144615 453.006134,95.403786 450.722443,95.056976 
	C449.543335,98.443214 451.507996,99.265831 454.851379,99.757957 
M430.062012,81.550186 
	C430.052185,86.755081 434.299225,87.572830 437.797241,89.421043 
	C439.401215,90.268509 440.389221,92.281685 441.656555,93.766228 
	C439.798828,94.517693 437.991180,95.661179 436.068817,95.906982 
	C434.257874,96.138535 432.325989,95.424156 430.447296,95.125916 
	C430.160675,95.537956 429.874054,95.950005 429.587433,96.362045 
	C430.645081,97.411446 431.606567,99.208969 432.779755,99.359795 
	C435.506012,99.710289 438.634399,99.963745 441.030243,98.932846 
	C443.098480,98.042946 445.627563,95.358780 445.679199,93.407646 
	C445.737427,91.207466 443.502167,88.717697 441.779175,86.786850 
	C440.778809,85.665779 438.610443,85.664406 437.360443,84.666924 
	C436.100555,83.661583 435.326599,82.047195 434.339752,80.699654 
	C435.880035,79.978500 437.372131,78.828949 438.973236,78.648903 
	C440.811127,78.442245 442.745605,79.094734 444.638092,79.374001 
	C444.939362,78.991127 445.240601,78.608253 445.541840,78.225372 
	C444.403900,77.130730 443.431519,75.396645 442.099487,75.051826 
	C436.250549,73.537750 432.196686,75.627365 430.062012,81.550186 
M376.135834,85.879913 
	C378.150604,79.083031 378.654022,78.809898 391.288300,78.630043 
	C389.347443,76.817101 388.489685,75.488777 387.302094,75.047081 
	C385.975555,74.553680 384.346741,74.784599 382.854736,74.840622 
	C377.805603,75.030220 374.432037,77.715233 372.587402,82.252518 
	C370.544830,87.276756 371.124786,92.052505 374.733215,96.242378 
	C378.088684,100.138611 382.543945,100.454453 387.089569,99.373505 
	C388.349365,99.073929 389.265137,97.327766 390.338745,96.245300 
	C379.380005,96.861717 376.693756,95.105888 376.135834,85.879913 
M395.174927,88.472565 
	C395.176056,91.305191 394.958496,94.163940 395.292175,96.956841 
	C395.415527,97.989563 396.835419,98.867401 397.663971,99.815895 
	C398.418274,98.954582 399.817200,98.102051 399.829041,97.230614 
	C399.978210,86.282204 399.926910,75.331055 399.926910,64.481026 
	C396.420990,63.386997 395.058105,64.158661 395.132416,67.488075 
	C395.281128,74.149750 395.175659,80.817085 395.174927,88.472565 
z"/>
<path fill="#0B172F" opacity="1.000000" stroke="none" 
	d="
M206.531342,1.000000 
	C207.000763,53.020893 207.001541,105.041786 207.001160,157.531342 
	C138.386169,158.000000 69.772331,158.000000 1.079246,158.000000 
	C1.079246,105.759865 1.079246,53.519577 1.079246,1.000000 
	C69.353973,1.000000 137.708328,1.000000 206.531342,1.000000 
M140.134109,115.468445 
	C135.261353,116.714363 133.733841,112.347145 130.565826,109.441528 
	C124.122887,105.762421 117.992935,106.787109 114.399925,112.143829 
	C111.240837,116.853622 112.205910,123.345772 116.603706,126.968819 
	C121.586281,131.073624 127.525070,130.392136 132.918915,124.719299 
	C134.025955,121.021744 137.494049,122.012230 140.952332,121.262154 
	C147.636246,121.210495 154.320160,121.158844 161.924225,121.270996 
	C163.917877,121.284027 165.913696,121.362289 167.904755,121.296814 
	C172.370773,121.149933 176.191574,120.973442 179.218262,125.956909 
	C182.284668,131.005768 190.211685,130.721207 194.697952,126.595879 
	C199.307892,122.356796 199.512238,115.034119 195.146759,110.511955 
	C190.862869,106.074310 182.977371,105.236397 179.695999,110.290161 
	C176.038147,115.923752 171.457825,115.240891 166.444443,115.270424 
	C164.630615,115.281097 162.818008,115.499413 160.098969,115.363266 
	C153.681778,115.449654 147.264603,115.536041 140.134109,115.468445 
M100.640099,114.749443 
	C105.519485,109.871941 110.398880,104.994438 116.178848,100.165817 
	C122.117531,100.105484 128.056213,100.045151 134.653824,100.202385 
	C137.837387,103.856140 139.767120,109.167007 146.760223,108.979485 
	C154.354263,107.841553 158.461243,103.286026 157.915634,96.605675 
	C157.423141,90.575607 152.942001,86.903885 145.217270,86.792686 
	C142.642029,88.314354 140.018890,89.762199 137.511398,91.388344 
	C136.227936,92.220688 135.151443,93.372169 133.060471,94.212051 
	C126.047462,94.251823 119.034454,94.291603 111.357521,94.351608 
	C107.189209,99.087982 103.020897,103.824356 98.189087,108.870552 
	C92.791870,110.611069 87.394646,112.351585 81.130356,113.992584 
	C74.789124,112.309204 68.447884,110.625832 61.731617,108.385612 
	C49.807755,99.292313 44.853565,87.466011 48.053463,72.650406 
	C49.806980,64.531570 54.812401,58.427368 61.782116,53.049683 
	C68.182335,48.632332 75.367172,47.087250 83.696587,47.546574 
	C89.793427,50.043415 95.890274,52.540260 102.285431,55.632206 
	C107.267502,63.981686 114.478661,67.160065 124.844116,65.141289 
	C126.564011,65.092987 128.283905,65.044685 130.816025,65.124863 
	C133.768692,64.878876 135.963837,65.440636 137.748901,68.435417 
	C140.163589,72.486504 144.262238,73.856995 149.695206,72.806984 
	C155.899200,70.219215 158.592941,66.139053 157.891525,60.392178 
	C157.294937,55.504143 153.571686,52.013588 147.195480,50.963619 
	C144.069733,52.387451 139.893295,53.021370 138.080643,55.432407 
	C135.744781,58.539391 133.352020,59.356861 129.275146,59.156757 
	C127.554306,59.244797 125.833458,59.332832 123.257492,59.313808 
	C117.472343,59.769444 112.374779,59.017368 108.758682,53.497246 
	C107.221291,51.150364 104.324287,49.694130 101.684814,47.263657 
	C95.780228,45.334274 89.875648,43.404892 83.099052,41.258846 
	C74.815186,40.829990 66.950821,42.083504 59.334362,47.160992 
	C57.846699,48.214912 56.288906,49.183212 54.881901,50.335613 
	C34.177586,67.293442 36.929432,102.074547 60.336269,114.791138 
	C66.734726,118.469833 73.509789,120.645874 81.874016,120.095329 
	C87.909012,118.364731 93.944000,116.634140 100.640099,114.749443 
M140.898605,83.892662 
	C145.937302,83.837563 150.976013,83.782463 156.934296,83.882095 
	C159.091537,83.898109 161.256195,84.035973 163.404495,83.905159 
	C168.103897,83.618980 171.947815,83.961449 175.233871,88.611038 
	C178.709763,93.529198 186.327103,92.917984 190.695694,88.505440 
	C195.050980,84.106361 195.053604,77.171814 190.701660,72.850960 
	C186.139328,68.321243 178.368683,67.908188 174.881271,73.128151 
	C171.743408,77.824890 167.956314,77.887215 163.454056,77.749939 
	C160.972382,77.674271 158.483261,77.842369 155.073807,77.749557 
	C150.050079,77.806190 145.026337,77.862823 139.073425,77.777252 
	C130.381180,77.825294 121.688942,77.873337 112.078880,77.760628 
	C107.719391,77.806717 103.359901,77.852806 98.143890,77.755554 
	C94.078499,78.048546 90.551231,77.835754 88.222961,73.374352 
	C87.311516,71.627846 84.148743,71.056229 81.434380,69.579109 
	C73.462151,69.617622 68.498657,74.353333 68.958801,81.482124 
	C69.391586,88.186989 74.912422,92.374565 82.771103,91.370819 
	C84.487816,90.466637 87.056946,89.991714 87.767433,88.580818 
	C90.277542,83.596283 94.581787,83.755898 99.903229,83.895744 
	C104.223389,83.810593 108.543556,83.725449 113.726204,83.753387 
	C122.475998,83.741043 131.225800,83.728699 140.898605,83.892662 
M124.793343,51.399696 
	C127.247406,50.226009 131.014313,49.665318 131.903503,47.760956 
	C134.337997,42.547058 138.401001,43.171970 142.616989,43.198177 
	C145.077698,43.213470 147.539291,43.085987 150.928757,43.167328 
	C158.080109,43.183060 165.239639,43.019047 172.376892,43.344170 
	C174.105484,43.422909 176.278122,44.722435 177.353867,46.138683 
	C180.792862,50.666229 185.341080,52.620663 190.322098,51.071434 
	C195.169952,49.563629 198.114197,45.735546 198.251205,40.762028 
	C198.394775,35.551315 195.492340,31.395548 190.571701,29.766285 
	C185.533798,28.098200 180.999786,29.917332 177.464722,34.385262 
	C176.369415,35.769611 174.185043,36.960800 172.440399,37.046913 
	C164.976959,37.415276 157.491531,37.337715 149.096756,37.226551 
	C146.443344,37.205986 143.787155,37.099628 141.137192,37.185581 
	C137.446091,37.305305 134.515289,37.110252 131.998184,33.215374 
	C130.528793,30.941685 126.106598,30.576262 122.300293,29.231688 
	C115.374779,31.267981 111.961678,35.572845 112.629570,41.429146 
	C113.322777,47.507420 117.144302,50.836277 124.793343,51.399696 
M79.823769,142.653290 
	C83.409912,143.137329 87.766403,141.310715 90.055367,146.724503 
	C95.555771,156.733963 95.557243,156.738174 106.411255,152.934769 
	C107.665260,152.495346 108.970207,152.111740 110.103882,151.449478 
	C110.877350,150.997665 111.991394,150.046860 111.929596,149.420090 
	C111.475777,144.817596 111.663414,139.854935 109.905304,135.753113 
	C107.705856,130.621613 103.840347,126.204208 100.551407,121.264328 
	C97.763062,122.329720 94.368332,123.626808 90.111214,124.890472 
	C86.072701,125.293884 82.034195,125.697296 77.151314,125.890427 
	C73.152153,125.084114 69.153000,124.277802 64.585274,123.119736 
	C60.567959,120.996475 56.550648,118.873215 52.158188,116.174904 
	C47.533707,110.076164 42.909229,103.977425 38.158100,97.104065 
	C33.787865,85.763885 34.435841,74.445572 38.778439,62.667320 
	C43.565769,56.544926 48.353104,50.422527 53.808201,44.069412 
	C57.933109,41.909500 62.058018,39.749584 67.016167,37.437244 
	C71.332268,36.741772 75.648369,36.046299 80.834579,35.609913 
	C84.556923,36.068695 88.279266,36.527477 92.632401,37.366066 
	C95.536980,38.385338 98.441551,39.404606 100.150810,40.004417 
	C103.024216,34.655815 104.854912,29.330282 108.282974,25.396875 
	C111.837860,21.317926 111.066139,16.809872 111.849556,12.414827 
	C111.964066,11.772417 111.028893,10.667063 110.305939,10.192780 
	C100.225769,3.579888 94.923851,5.117605 89.422798,16.468855 
	C87.052109,21.235004 82.419022,17.981936 78.371933,19.202883 
	C74.289085,19.860304 71.812874,17.964207 70.311928,14.298327 
	C69.819244,13.095001 68.949699,12.045973 68.072014,10.197013 
	C66.822151,6.334000 64.617783,4.955424 60.571545,6.738449 
	C57.709713,7.999549 54.418049,8.325754 51.634979,9.707304 
	C50.321220,10.359469 49.017578,12.491750 48.982567,13.983274 
	C48.882191,18.259115 49.432381,22.550230 49.052959,26.929745 
	C45.050129,29.578199 41.047298,32.226654 36.560513,34.387337 
	C23.066795,27.918159 23.139273,27.966349 15.497513,39.459370 
	C13.834641,41.960285 13.378264,44.023045 15.950056,45.805580 
	C23.927277,51.334648 24.115393,58.277515 19.941948,66.142876 
	C19.479256,67.014877 19.149647,67.957497 17.968657,68.960129 
	C16.896059,69.254341 15.837032,69.734650 14.748769,69.814003 
	C3.761277,70.615189 3.750828,70.596695 3.675699,81.617737 
	C3.664417,83.272827 3.409540,85.066666 3.953119,86.543999 
	C4.455041,87.908119 5.666622,89.564949 6.935141,89.989922 
	C10.827490,91.293915 14.897237,92.068375 19.171015,93.732872 
	C23.739758,101.920143 24.495264,109.473923 15.690284,115.557243 
	C13.274908,117.226013 13.498081,119.189110 15.139214,121.462471 
	C25.346972,135.602600 21.451733,133.820709 36.761230,126.854622 
	C40.795887,129.260956 44.830544,131.667282 49.231934,134.745529 
	C49.017799,138.652679 49.183510,142.630142 48.477055,146.446152 
	C47.838097,149.897583 48.972099,151.737915 52.127522,152.077103 
	C56.917843,152.591995 61.322166,158.783401 66.997169,152.697968 
	C70.032951,148.154907 70.990654,141.200699 79.823769,142.653290 
M69.445396,104.653008 
	C72.170380,105.811279 74.812202,107.320801 77.652222,107.993134 
	C79.296921,108.382500 81.917480,108.010529 82.899559,106.910492 
	C83.919891,105.767601 84.234192,102.923248 83.489540,101.582672 
	C82.771713,100.290398 80.367676,99.587280 78.596619,99.307266 
	C75.794350,98.864204 72.902130,98.990074 69.581055,98.374626 
	C67.530342,96.827705 64.941635,95.663620 63.521496,93.667969 
	C57.175465,84.750214 56.248142,70.670601 70.914017,62.319370 
	C73.223709,62.325794 75.559540,62.548107 77.835083,62.272560 
	C79.769379,62.038330 82.278763,61.769829 83.332886,60.510975 
	C84.232811,59.436268 84.140724,56.279938 83.185158,55.232727 
	C82.096306,54.039448 79.450966,53.540215 77.685394,53.860382 
	C75.018059,54.344078 72.526718,55.798317 69.244041,56.932491 
	C59.017963,60.549641 53.241234,71.126297 53.314003,81.573509 
	C53.383533,91.556160 60.201008,101.027496 69.445396,104.653008 
z"/>
<path fill="#3ABBCB" opacity="1.000000" stroke="none" 
	d="
M224.331024,75.331825 
	C224.480438,82.471397 224.708054,89.611244 224.682434,96.750183 
	C224.679153,97.664719 223.358078,98.574524 222.647476,99.486519 
	C221.825134,98.694267 220.299759,97.913086 220.287079,97.108086 
	C220.125366,86.836586 220.180466,76.561661 220.180466,66.502968 
	C224.469696,64.881020 226.453690,66.368675 227.884033,69.977272 
	C230.755829,77.222404 234.008850,84.316422 237.524521,92.443764 
	C241.218735,84.223770 244.702606,76.843590 247.840515,69.319138 
	C249.228180,65.991653 251.166489,65.102089 254.855728,66.532738 
	C254.855728,76.658180 254.908951,86.937752 254.758682,97.214355 
	C254.746124,98.072754 253.362442,98.911102 252.615814,99.758774 
	C251.829819,98.774002 250.393372,97.808807 250.363052,96.801300 
	C250.160477,90.071854 250.257843,83.333382 249.129669,76.306808 
	C245.586884,84.170036 242.044113,92.033264 238.501328,99.896484 
	C237.925797,99.984985 237.350266,100.073486 236.774734,100.161987 
	C233.049255,91.858528 229.323776,83.555069 225.354675,74.688927 
	C224.923508,73.731613 224.735977,73.336975 224.548447,72.942345 
	C224.475983,73.738838 224.403519,74.535332 224.331024,75.331825 
z"/>
<path fill="#41BECC" opacity="1.000000" stroke="none" 
	d="
M308.397583,88.290344 
	C309.394104,84.514229 310.071259,81.055443 311.261261,77.783134 
	C311.752228,76.433029 313.344421,75.483406 314.435760,74.351631 
	C314.969452,74.720947 315.503174,75.090263 316.036865,75.459587 
	C313.920624,82.897415 311.879974,90.358688 309.589752,97.742554 
	C309.312378,98.636879 307.639160,99.699585 306.701935,99.621048 
	C305.738800,99.540352 304.393677,98.316437 304.067383,97.315247 
	C302.580231,92.751999 301.392822,88.091049 299.036316,83.297028 
	C297.683411,87.544441 296.482941,91.850098 294.894531,96.007530 
	C294.342194,97.453194 292.830078,98.532158 291.756287,99.778603 
	C290.702362,98.528488 289.146210,97.440849 288.680237,96.000534 
	C286.495697,89.247719 284.611084,82.397903 282.619354,75.582733 
	C283.086395,75.192543 283.553436,74.802353 284.020477,74.412163 
	C285.260834,75.540077 287.140350,76.446281 287.622772,77.837097 
	C289.122986,82.161987 290.093384,86.670677 291.269318,91.108063 
	C291.728912,91.166969 292.188477,91.225883 292.648041,91.284798 
	C293.918427,87.153534 295.009247,82.953606 296.549652,78.925606 
	C297.146088,77.365868 298.760284,76.195328 299.910828,74.847473 
	C300.893829,76.182076 302.276550,77.381439 302.782684,78.877380 
	C304.139618,82.887665 305.121155,87.024963 306.600464,92.372124 
	C307.535706,90.323830 307.910339,89.503326 308.397583,88.290344 
z"/>
<path fill="#3EBCCC" opacity="1.000000" stroke="none" 
	d="
M363.312622,76.359116 
	C368.197998,81.773781 368.935455,89.315781 365.397522,95.010666 
	C363.028656,98.823738 359.465820,100.188629 355.153046,99.727318 
	C352.608307,99.455116 350.089935,97.197800 347.554779,99.740433 
	C346.696869,98.834480 345.109070,97.941223 345.093079,97.020630 
	C344.916779,86.882996 344.890594,76.738937 345.125763,66.603622 
	C345.150635,65.532463 347.100342,64.505966 348.157074,63.458744 
	C348.639008,63.763859 349.120941,64.068977 349.602875,64.374092 
	C349.602875,68.455269 349.602875,72.536438 349.602875,75.284554 
	C354.510620,75.592430 358.753815,75.858620 363.312622,76.359116 
M358.042328,78.431511 
	C354.314392,77.865913 350.841003,79.025787 350.260925,82.738228 
	C349.695862,86.354683 349.914185,90.691124 351.481445,93.879250 
	C353.131256,97.235298 357.204865,96.941238 360.176239,94.715721 
	C364.963409,91.130188 364.042389,81.846001 358.042328,78.431511 
z"/>
<path fill="#43BECD" opacity="1.000000" stroke="none" 
	d="
M407.882996,86.789810 
	C411.943481,85.384735 415.704803,84.222816 419.584808,83.024239 
	C419.802490,78.008644 418.354340,77.560051 407.873413,80.006744 
	C407.873413,79.013779 407.685028,77.401993 407.901520,77.345634 
	C411.460083,76.419304 415.113617,74.978737 418.650421,75.197189 
	C420.584595,75.316650 423.643402,78.120651 423.933685,80.053604 
	C424.813690,85.914490 424.677490,91.941086 424.668304,97.902718 
	C424.667358,98.521332 422.135529,99.793983 422.012726,99.656944 
	C419.743835,97.124481 417.536987,99.667686 415.461151,99.484276 
	C412.421722,99.215706 408.718201,98.446075 406.712006,96.460762 
	C403.994965,93.771988 404.917816,89.984367 407.882996,86.789810 
M410.033234,90.871307 
	C410.745361,92.512733 411.139893,95.221756 412.242767,95.549866 
	C413.974731,96.065147 416.846100,95.618263 418.026123,94.404030 
	C419.542053,92.844116 419.862183,90.122108 420.697479,87.900726 
	C420.190063,87.485924 419.682678,87.071121 419.175293,86.656311 
	C416.231842,87.805168 413.288422,88.954025 410.033234,90.871307 
z"/>
<path fill="#3FBDCC" opacity="1.000000" stroke="none" 
	d="
M281.360687,75.942703 
	C278.007507,85.170631 274.955750,94.167786 271.112823,102.813271 
	C269.764771,105.845955 266.620636,108.189827 263.950928,110.437576 
	C263.383850,110.915024 261.310852,109.603836 259.931671,109.116714 
	C260.875061,108.334702 261.699554,107.243553 262.783356,106.826820 
	C266.502686,105.396690 268.691132,101.108093 267.264709,97.136330 
	C264.684052,89.950729 261.947937,82.820953 259.234192,75.553902 
	C262.448425,73.894646 263.877411,75.251221 264.809845,78.093994 
	C266.436310,83.052551 268.213257,87.961754 271.160431,92.844971 
	C272.902771,87.889931 274.691803,82.950607 276.368347,77.973412 
	C277.243225,75.376083 278.405548,73.713219 281.360687,75.942703 
z"/>
<path fill="#3DBCCB" opacity="1.000000" stroke="none" 
	d="
M330.892944,99.792084 
	C322.376617,99.428108 318.026367,94.608139 318.534546,86.563568 
	C319.018402,78.903564 323.914551,74.341820 331.111389,74.845688 
	C337.357788,75.283020 340.433014,80.083679 339.078217,88.098640 
	C334.154205,88.098640 329.097595,88.098640 324.108887,88.098640 
	C323.476562,95.944397 327.016907,97.383545 337.883942,94.365082 
	C338.000397,98.373131 337.322449,98.932304 330.892944,99.792084 
M333.179291,79.139137 
	C327.517303,77.284515 324.855072,78.656006 323.417725,84.396851 
	C327.434357,84.396851 331.380371,84.396851 336.271973,84.396851 
	C335.197113,82.320900 334.488678,80.952637 333.179291,79.139137 
z"/>
<path fill="#40BDCC" opacity="1.000000" stroke="none" 
	d="
M454.439087,99.726486 
	C451.507996,99.265831 449.543335,98.443214 450.722443,95.056976 
	C453.006134,95.403786 455.149261,96.144615 457.178986,95.908890 
	C458.868378,95.712685 460.424591,94.369568 462.039764,93.534454 
	C460.986115,92.234360 460.115936,90.696693 458.826996,89.701286 
	C457.549500,88.714729 455.465515,88.632729 454.423218,87.513390 
	C452.748077,85.714302 450.464447,83.298286 450.616455,81.309456 
	C450.772949,79.261971 453.182861,76.680611 455.256866,75.679016 
	C457.448059,74.620827 460.466888,74.763634 463.002960,75.159096 
	C464.184937,75.343414 465.080841,77.362373 466.956573,79.533966 
	C462.708191,79.113419 460.283142,78.626823 457.890778,78.754089 
	C456.890076,78.807327 455.348480,80.041977 455.165009,80.961433 
	C454.976318,81.907028 455.879883,83.486656 456.777649,84.138023 
	C458.219574,85.184250 460.433838,85.314095 461.629028,86.518539 
	C463.563995,88.468445 466.042114,90.860062 466.294250,93.273735 
	C466.691406,97.075500 463.295074,98.890884 459.814606,99.596985 
	C458.215149,99.921471 456.509094,99.720596 454.439087,99.726486 
z"/>
<path fill="#40BDCC" opacity="1.000000" stroke="none" 
	d="
M430.076294,81.159119 
	C432.196686,75.627365 436.250549,73.537750 442.099487,75.051826 
	C443.431519,75.396645 444.403900,77.130730 445.541840,78.225372 
	C445.240601,78.608253 444.939362,78.991127 444.638092,79.374001 
	C442.745605,79.094734 440.811127,78.442245 438.973236,78.648903 
	C437.372131,78.828949 435.880035,79.978500 434.339752,80.699654 
	C435.326599,82.047195 436.100555,83.661583 437.360443,84.666924 
	C438.610443,85.664406 440.778809,85.665779 441.779175,86.786850 
	C443.502167,88.717697 445.737427,91.207466 445.679199,93.407646 
	C445.627563,95.358780 443.098480,98.042946 441.030243,98.932846 
	C438.634399,99.963745 435.506012,99.710289 432.779755,99.359795 
	C431.606567,99.208969 430.645081,97.411446 429.587433,96.362045 
	C429.874054,95.950005 430.160675,95.537956 430.447296,95.125916 
	C432.325989,95.424156 434.257874,96.138535 436.068817,95.906982 
	C437.991180,95.661179 439.798828,94.517693 441.656555,93.766220 
	C440.389221,92.281685 439.401215,90.268509 437.797241,89.421043 
	C434.299225,87.572830 430.052185,86.755081 430.076294,81.159119 
z"/>
<path fill="#43BECD" opacity="1.000000" stroke="none" 
	d="
M376.098206,86.279831 
	C376.693756,95.105888 379.380005,96.861717 390.338745,96.245300 
	C389.265137,97.327766 388.349365,99.073929 387.089569,99.373505 
	C382.543945,100.454453 378.088684,100.138611 374.733215,96.242378 
	C371.124786,92.052505 370.544830,87.276756 372.587402,82.252518 
	C374.432037,77.715233 377.805603,75.030220 382.854736,74.840622 
	C384.346741,74.784599 385.975555,74.553680 387.302094,75.047081 
	C388.489685,75.488777 389.347443,76.817101 391.288300,78.630043 
	C378.654022,78.809898 378.150604,79.083031 376.098206,86.279831 
z"/>
<path fill="#4CC1CF" opacity="1.000000" stroke="none" 
	d="
M395.175049,87.977325 
	C395.175659,80.817085 395.281128,74.149750 395.132416,67.488075 
	C395.058105,64.158661 396.420990,63.386997 399.926910,64.481026 
	C399.926910,75.331055 399.978210,86.282204 399.829041,97.230614 
	C399.817200,98.102051 398.418274,98.954582 397.663971,99.815887 
	C396.835419,98.867401 395.415527,97.989563 395.292175,96.956841 
	C394.958496,94.163940 395.176056,91.305191 395.175049,87.977325 
z"/>
<path fill="#7AD1DB" opacity="1.000000" stroke="none" 
	d="
M224.549332,75.208481 
	C224.403519,74.535332 224.475983,73.738838 224.548447,72.942345 
	C224.735977,73.336975 224.923508,73.731613 225.108643,74.420784 
	C224.993378,74.838600 224.880493,74.961876 224.549332,75.208481 
z"/>
<path fill="#74C094" opacity="1.000000" stroke="none" 
	d="
M35.998135,126.880859 
	C21.451733,133.820709 25.346972,135.602600 15.139214,121.462471 
	C13.498081,119.189110 13.274908,117.226013 15.690284,115.557243 
	C24.495264,109.473923 23.739758,101.920143 19.351353,93.157158 
	C19.884953,85.198090 20.275217,77.815918 20.509615,70.428795 
	C20.525528,69.927345 19.369370,69.388710 18.758316,68.867363 
	C19.149647,67.957497 19.479256,67.014877 19.941948,66.142876 
	C24.115393,58.277515 23.927277,51.334648 15.950056,45.805580 
	C13.378264,44.023045 13.834641,41.960285 15.497513,39.459370 
	C23.139273,27.966349 23.066795,27.918159 36.780380,35.063118 
	C36.667095,41.455368 35.995522,47.179665 36.127457,52.885384 
	C36.206852,56.318977 37.537647,59.723633 38.306076,63.141293 
	C34.435841,74.445572 33.787865,85.763885 37.845299,97.679977 
	C37.021740,99.892036 36.102055,101.520134 36.069714,103.165688 
	C35.914383,111.068161 35.998833,118.975349 35.998135,126.880859 
z"/>
<path fill="#4FB8AA" opacity="1.000000" stroke="none" 
	d="
M90.973595,124.923897 
	C94.368332,123.626808 97.763062,122.329720 100.551407,121.264328 
	C103.840347,126.204208 107.705856,130.621613 109.905304,135.753113 
	C111.663414,139.854935 111.475777,144.817596 111.929596,149.420090 
	C111.991394,150.046860 110.877350,150.997665 110.103882,151.449478 
	C108.970207,152.111740 107.665260,152.495346 106.411255,152.934769 
	C95.557243,156.738174 95.555771,156.733963 90.305634,146.086533 
	C90.695137,138.607010 90.834366,131.765457 90.973595,124.923897 
z"/>
<path fill="#67BC9C" opacity="1.000000" stroke="none" 
	d="
M52.533333,116.749954 
	C56.550648,118.873215 60.567959,120.996475 64.826538,123.806122 
	C64.733147,132.901703 64.299866,141.309479 64.180397,149.721710 
	C64.164261,150.857788 65.725227,152.016251 66.555923,153.164352 
	C61.322166,158.783401 56.917843,152.591995 52.127522,152.077103 
	C48.972099,151.737915 47.838097,149.897583 48.477055,146.446152 
	C49.183510,142.630142 49.017799,138.652679 49.366085,134.127487 
	C49.666927,131.420532 49.642445,129.294159 50.042759,127.251015 
	C50.733921,123.723419 51.688992,120.247536 52.533333,116.749954 
z"/>
<path fill="#66BD9D" opacity="1.000000" stroke="none" 
	d="
M66.182922,37.589668 
	C62.058018,39.749584 57.933109,41.909500 53.297119,43.812859 
	C52.190693,41.269337 51.442379,39.009106 51.036827,36.688957 
	C50.466774,33.427734 50.151211,30.122025 49.726818,26.835340 
	C49.432381,22.550230 48.882191,18.259115 48.982567,13.983274 
	C49.017578,12.491750 50.321220,10.359469 51.634979,9.707304 
	C54.418049,8.325754 57.709713,7.999549 60.571545,6.738449 
	C64.617783,4.955424 66.822151,6.334000 67.750069,10.624187 
	C66.619446,12.478014 65.095551,13.917960 65.121773,15.329096 
	C65.259758,22.753298 65.789307,30.170219 66.182922,37.589668 
z"/>
<path fill="#4FB8AA" opacity="1.000000" stroke="none" 
	d="
M89.996323,15.997923 
	C94.923851,5.117605 100.225769,3.579888 110.305939,10.192780 
	C111.028893,10.667063 111.964066,11.772417 111.849556,12.414827 
	C111.066139,16.809872 111.837860,21.317926 108.282974,25.396875 
	C104.854912,29.330282 103.024216,34.655815 100.150810,40.004417 
	C98.441551,39.404606 95.536980,38.385338 92.316360,36.708813 
	C92.000122,30.916237 92.153877,25.773520 91.907722,20.650015 
	C91.831924,19.072348 90.664108,17.547148 89.996323,15.997923 
z"/>
<path fill="#23B0C0" opacity="1.000000" stroke="none" 
	d="
M150.014114,37.422768 
	C157.491531,37.337715 164.976959,37.415276 172.440399,37.046913 
	C174.185043,36.960800 176.369415,35.769611 177.464722,34.385262 
	C180.999786,29.917332 185.533798,28.098200 190.571701,29.766285 
	C195.492340,31.395548 198.394775,35.551315 198.251205,40.762028 
	C198.114197,45.735546 195.169952,49.563629 190.322098,51.071434 
	C185.341080,52.620663 180.792862,50.666229 177.353867,46.138683 
	C176.278122,44.722435 174.105484,43.422909 172.376892,43.344170 
	C165.239639,43.019047 158.080109,43.183060 150.464233,42.691933 
	C150.004501,40.618610 150.009308,39.020691 150.014114,37.422768 
M191.931274,41.305599 
	C191.166428,36.398193 188.159683,34.076687 184.962250,36.209644 
	C183.658722,37.079208 182.205704,39.148235 182.386185,40.455421 
	C182.607498,42.058456 184.468842,44.643055 185.621368,44.643154 
	C187.649826,44.643330 189.678421,43.004417 191.931274,41.305599 
z"/>
<path fill="#67B997" opacity="1.000000" stroke="none" 
	d="
M59.921627,114.253891 
	C36.929432,102.074547 34.177586,67.293442 54.881901,50.335613 
	C56.288906,49.183212 57.846699,48.214912 59.675331,47.485863 
	C60.375935,49.629517 60.735573,51.448296 61.095215,53.267078 
	C54.812401,58.427368 49.806980,64.531570 48.053463,72.650406 
	C44.853565,87.466011 49.807755,99.292313 61.619293,108.875290 
	C60.978527,110.994614 60.450077,112.624252 59.921627,114.253891 
z"/>
<path fill="#23B0C0" opacity="1.000000" stroke="none" 
	d="
M155.997498,77.900574 
	C158.483261,77.842369 160.972382,77.674271 163.454056,77.749939 
	C167.956314,77.887215 171.743408,77.824890 174.881271,73.128151 
	C178.368683,67.908188 186.139328,68.321243 190.701660,72.850960 
	C195.053604,77.171814 195.050980,84.106361 190.695694,88.505440 
	C186.327103,92.917984 178.709763,93.529198 175.233871,88.611038 
	C171.947815,83.961449 168.103897,83.618980 163.404495,83.905159 
	C161.256195,84.035973 159.091537,83.898109 156.470306,83.392014 
	C156.003372,81.234810 156.000427,79.567688 155.997498,77.900574 
M183.253677,75.921211 
	C178.358200,77.010918 176.294556,80.179428 178.829803,83.148796 
	C179.899353,84.401497 182.195831,85.390335 183.769226,85.191383 
	C185.128326,85.019508 187.416641,82.781487 187.242462,81.834023 
	C186.865356,79.782738 185.174316,77.973015 183.253677,75.921211 
z"/>
<path fill="#23AFC0" opacity="1.000000" stroke="none" 
	d="
M161.004852,115.622971 
	C162.818008,115.499413 164.630615,115.281097 166.444443,115.270424 
	C171.457825,115.240891 176.038147,115.923752 179.695999,110.290161 
	C182.977371,105.236397 190.862869,106.074310 195.146759,110.511955 
	C199.512238,115.034119 199.307892,122.356796 194.697952,126.595879 
	C190.211685,130.721207 182.284668,131.005768 179.218262,125.956909 
	C176.191574,120.973442 172.370773,121.149933 167.904755,121.296814 
	C165.913696,121.362289 163.917877,121.284027 161.463135,120.789917 
	C161.002975,118.746887 161.003906,117.184929 161.004852,115.622971 
M185.897858,122.962036 
	C191.027832,122.625282 193.642258,119.303795 191.177933,115.992119 
	C190.233063,114.722374 188.093735,113.377602 186.762314,113.605721 
	C185.133682,113.884750 182.649216,115.717949 182.579453,116.991135 
	C182.478119,118.840683 184.205276,120.790413 185.897858,122.962036 
z"/>
<path fill="#6DBE98" opacity="1.000000" stroke="none" 
	d="
M49.389885,26.882542 
	C50.151211,30.122025 50.466774,33.427734 51.036827,36.688957 
	C51.442379,39.009106 52.190693,41.269337 52.963234,43.928223 
	C48.353104,50.422527 43.565769,56.544926 38.542259,62.904305 
	C37.537647,59.723633 36.206852,56.318977 36.127457,52.885384 
	C35.995522,47.179665 36.667095,41.455368 37.022354,35.306999 
	C41.047298,32.226654 45.050129,29.578199 49.389885,26.882542 
z"/>
<path fill="#7BC190" opacity="1.000000" stroke="none" 
	d="
M18.363487,68.913742 
	C19.369370,69.388710 20.525528,69.927345 20.509615,70.428795 
	C20.275217,77.815918 19.884953,85.198090 19.214851,92.815079 
	C14.897237,92.068375 10.827490,91.293915 6.935141,89.989922 
	C5.666622,89.564949 4.455041,87.908119 3.953119,86.543999 
	C3.409540,85.066666 3.664417,83.272827 3.675699,81.617737 
	C3.750828,70.596695 3.761277,70.615189 14.748769,69.814003 
	C15.837032,69.734650 16.896059,69.254341 18.363487,68.913742 
z"/>
<path fill="#6DBE97" opacity="1.000000" stroke="none" 
	d="
M52.345760,116.462433 
	C51.688992,120.247536 50.733921,123.723419 50.042759,127.251015 
	C49.642445,129.294159 49.666927,131.420532 49.182716,133.791534 
	C44.830544,131.667282 40.795887,129.260956 36.379684,126.867737 
	C35.998833,118.975349 35.914383,111.068161 36.069714,103.165688 
	C36.102055,101.520134 37.021740,99.892036 37.908623,98.067291 
	C42.909229,103.977425 47.533707,110.076164 52.345760,116.462433 
z"/>
<path fill="#64BA9C" opacity="1.000000" stroke="none" 
	d="
M70.174812,62.521053 
	C56.248142,70.670601 57.175465,84.750214 63.521496,93.667969 
	C64.941635,95.663620 67.530342,96.827705 69.765083,99.008606 
	C69.620888,101.143044 69.292664,102.643501 68.964439,104.143951 
	C60.201008,101.027496 53.383533,91.556160 53.314003,81.573509 
	C53.241234,71.126297 59.017963,60.549641 69.615334,57.357185 
	C70.049355,59.361603 70.112083,60.941326 70.174812,62.521053 
z"/>
<path fill="#5FBBA1" opacity="1.000000" stroke="none" 
	d="
M66.599548,37.513458 
	C65.789307,30.170219 65.259758,22.753298 65.121773,15.329096 
	C65.095551,13.917960 66.619446,12.478014 67.840309,10.988873 
	C68.949699,12.045973 69.819244,13.095001 70.311928,14.298327 
	C71.812874,17.964207 74.289085,19.860304 78.700577,19.812572 
	C79.340973,25.398451 79.652718,30.374638 79.964470,35.350826 
	C75.648369,36.046299 71.332268,36.741772 66.599548,37.513458 
z"/>
<path fill="#60BCA1" opacity="1.000000" stroke="none" 
	d="
M66.776550,152.931152 
	C65.725227,152.016251 64.164261,150.857788 64.180397,149.721710 
	C64.299866,141.309479 64.733147,132.901703 65.110825,123.982002 
	C69.153000,124.277802 73.152153,125.084114 77.574951,126.452705 
	C78.319992,132.138382 78.641403,137.261795 78.962814,142.385193 
	C70.990654,141.200699 70.032951,148.154907 66.776550,152.931152 
z"/>
<path fill="#43B3AE" opacity="1.000000" stroke="none" 
	d="
M132.367432,125.159912 
	C127.525070,130.392136 121.586281,131.073624 116.603706,126.968819 
	C112.205910,123.345772 111.240837,116.853622 114.399925,112.143829 
	C117.992935,106.787109 124.122887,105.762421 130.780518,110.138306 
	C131.452606,115.610031 131.910019,120.384972 132.367432,125.159912 
M124.233589,113.390167 
	C119.609222,114.657578 117.526627,117.555321 119.578018,120.419846 
	C120.542313,121.766373 122.876404,123.054497 124.372513,122.841705 
	C125.911087,122.622871 128.455307,120.357811 128.303314,119.317917 
	C128.010864,117.317024 126.126587,115.548782 124.233589,113.390167 
z"/>
<path fill="#3CB1B2" opacity="1.000000" stroke="none" 
	d="
M149.555435,37.324661 
	C150.009308,39.020691 150.004501,40.618610 150.000092,42.619637 
	C147.539291,43.085987 145.077698,43.213470 142.616989,43.198177 
	C138.401001,43.171970 134.337997,42.547058 131.903503,47.760956 
	C131.014313,49.665318 127.247406,50.226009 124.395782,50.933678 
	C123.998947,48.796463 123.999687,47.125263 124.339455,45.311687 
	C126.021591,43.517658 128.640152,41.641048 128.398163,40.268982 
	C128.065018,38.380142 125.569221,36.872749 124.000000,34.818489 
	C123.671005,32.740795 123.341934,31.046553 123.012871,29.352310 
	C126.106598,30.576262 130.528793,30.941685 131.998184,33.215374 
	C134.515289,37.110252 137.446091,37.305305 141.137192,37.185581 
	C143.787155,37.099628 146.443344,37.205986 149.555435,37.324661 
z"/>
<path fill="#57B7A3" opacity="1.000000" stroke="none" 
	d="
M79.393295,142.519241 
	C78.641403,137.261795 78.319992,132.138382 77.997131,126.557846 
	C82.034195,125.697296 86.072701,125.293884 90.542404,124.907181 
	C90.834366,131.765457 90.695137,138.607010 90.248810,145.737534 
	C87.766403,141.310715 83.409912,143.137329 79.393295,142.519241 
z"/>
<path fill="#56B7A4" opacity="1.000000" stroke="none" 
	d="
M80.399521,35.480370 
	C79.652718,30.374638 79.340973,25.398451 79.063889,19.901901 
	C82.419022,17.981936 87.052109,21.235004 89.709564,16.233389 
	C90.664108,17.547148 91.831924,19.072348 91.907722,20.650015 
	C92.153877,25.773520 92.000122,30.916237 92.000969,36.518913 
	C88.279266,36.527477 84.556923,36.068695 80.399521,35.480370 
z"/>
<path fill="#35B2B6" opacity="1.000000" stroke="none" 
	d="
M148.990280,72.780479 
	C144.262238,73.856995 140.163589,72.486504 137.748901,68.435417 
	C135.963837,65.440636 133.768692,64.878876 130.407303,64.653778 
	C130.006470,62.565025 130.014359,60.947365 130.022247,59.329704 
	C133.352020,59.356861 135.744781,58.539391 138.080643,55.432407 
	C139.893295,53.021370 144.069733,52.387451 147.597321,51.458286 
	C147.999176,53.634029 147.999176,55.315102 147.621338,57.036797 
	C143.894821,57.270401 141.753693,58.998039 142.002930,62.382942 
	C142.253342,65.783989 144.787521,67.027534 148.039978,67.374069 
	C148.383881,69.421616 148.687088,71.101051 148.990280,72.780479 
z"/>
<path fill="#54B6A3" opacity="1.000000" stroke="none" 
	d="
M98.992569,83.734077 
	C94.581787,83.755898 90.277542,83.596283 87.767433,88.580818 
	C87.056946,89.991714 84.487816,90.466637 82.386642,90.868904 
	C81.936539,88.716362 81.870903,87.065735 82.057358,85.209831 
	C86.458237,81.850197 85.363541,78.871178 82.004974,75.538437 
	C82.005569,73.389236 82.008446,71.669380 82.011322,69.949524 
	C84.148743,71.056229 87.311516,71.627846 88.222961,73.374352 
	C90.551231,77.835754 94.078499,78.048546 98.572220,78.247337 
	C98.997894,80.404106 98.995232,82.069092 98.992569,83.734077 
z"/>
<path fill="#5CB8A0" opacity="1.000000" stroke="none" 
	d="
M81.805267,85.415108 
	C81.870903,87.065735 81.936539,88.716362 82.002350,90.871407 
	C74.912422,92.374565 69.391586,88.186989 68.958801,81.482124 
	C68.498657,74.353333 73.462151,69.617622 81.722855,69.764313 
	C82.008446,71.669380 82.005569,73.389236 81.606148,75.526215 
	C77.670082,75.662552 75.180000,77.289360 75.285995,80.792381 
	C75.400070,84.562691 78.115646,85.996719 81.805267,85.415108 
z"/>
<path fill="#2CAEB7" opacity="1.000000" stroke="none" 
	d="
M145.995575,86.838692 
	C152.942001,86.903885 157.423141,90.575607 157.915634,96.605675 
	C158.461243,103.286026 154.354263,107.841553 146.380264,108.465836 
	C146.000565,106.269379 146.000839,104.586578 146.354340,102.847824 
	C148.380768,101.079887 150.053970,99.367897 151.727173,97.655907 
	C149.818375,96.011215 147.909561,94.366524 146.000473,92.304535 
	C145.998657,90.204376 145.997116,88.521538 145.995575,86.838692 
z"/>
<path fill="#35AEB2" opacity="1.000000" stroke="none" 
	d="
M146.001099,102.903778 
	C146.000839,104.586578 146.000565,106.269379 146.000977,108.370331 
	C139.767120,109.167007 137.837387,103.856140 134.326935,99.691040 
	C133.993851,97.579605 133.987640,95.979515 133.981415,94.379425 
	C135.151443,93.372169 136.227936,92.220688 137.511398,91.388344 
	C140.018890,89.762199 142.642029,88.314354 145.606430,86.815689 
	C145.997116,88.521538 145.998657,90.204376 145.663574,92.458488 
	C140.388870,96.684319 140.561874,99.218330 146.001099,102.903778 
z"/>
<path fill="#44B4AE" opacity="1.000000" stroke="none" 
	d="
M124.000427,45.454071 
	C123.999687,47.125263 123.998947,48.796463 123.994301,50.896500 
	C117.144302,50.836277 113.322777,47.507420 112.629570,41.429146 
	C111.961678,35.572845 115.374779,31.267981 122.656586,29.292000 
	C123.341934,31.046553 123.671005,32.740795 123.673126,34.937946 
	C121.865227,37.115917 118.965233,39.086651 119.238113,40.396286 
	C119.640831,42.329060 122.301392,43.791393 124.000427,45.454071 
z"/>
<path fill="#49B6AD" opacity="1.000000" stroke="none" 
	d="
M123.995132,64.990532 
	C114.478661,67.160065 107.267502,63.981686 102.140488,54.885971 
	C102.012077,52.037533 102.028625,49.935337 102.045166,47.833138 
	C104.324287,49.694130 107.221291,51.150364 108.758682,53.497246 
	C112.374779,59.017368 117.472343,59.769444 123.648140,59.842964 
	C124.024239,61.911587 124.009682,63.451061 123.995132,64.990532 
z"/>
<path fill="#41B9B6" opacity="1.000000" stroke="none" 
	d="
M112.996696,77.921371 
	C121.688942,77.873337 130.381180,77.825294 139.538086,78.265419 
	C139.993683,80.407845 139.984634,82.062096 139.975586,83.716354 
	C131.225800,83.728699 122.475998,83.741043 113.341248,83.209488 
	C112.969757,81.084175 112.983223,79.502777 112.996696,77.921371 
z"/>
<path fill="#5FB9A1" opacity="1.000000" stroke="none" 
	d="
M61.438667,53.158379 
	C60.735573,51.448296 60.375935,49.629517 60.010254,47.414146 
	C66.950821,42.083504 74.815186,40.829990 83.530518,41.726562 
	C83.647377,43.879055 83.332771,45.563835 83.018166,47.248615 
	C75.367172,47.087250 68.182335,48.632332 61.438667,53.158379 
z"/>
<path fill="#2BADB6" opacity="1.000000" stroke="none" 
	d="
M147.999176,56.996178 
	C147.999176,55.315102 147.999176,53.634029 147.997620,51.534100 
	C153.571686,52.013588 157.294937,55.504143 157.891525,60.392178 
	C158.592941,66.139053 155.899200,70.219215 149.342743,72.793732 
	C148.687088,71.101051 148.383881,69.421616 148.310852,67.169167 
	C152.902130,62.593666 152.807724,60.920834 147.999176,56.996178 
z"/>
<path fill="#5DB8A0" opacity="1.000000" stroke="none" 
	d="
M60.128948,114.522514 
	C60.450077,112.624252 60.978527,110.994614 61.806812,109.153717 
	C68.447884,110.625832 74.789124,112.309204 81.564240,114.421448 
	C81.665298,116.556862 81.332466,118.263428 80.999634,119.969986 
	C73.509789,120.645874 66.734726,118.469833 60.128948,114.522514 
z"/>
<path fill="#51B3A4" opacity="1.000000" stroke="none" 
	d="
M83.357376,47.397594 
	C83.332771,45.563835 83.647377,43.879055 83.966522,41.834892 
	C89.875648,43.404892 95.780228,45.334274 101.864990,47.548397 
	C102.028625,49.935337 102.012077,52.037533 101.991325,54.588417 
	C95.890274,52.540260 89.793427,50.043415 83.357376,47.397594 
z"/>
<path fill="#44B9B5" opacity="1.000000" stroke="none" 
	d="
M133.520935,94.295738 
	C133.987640,95.979515 133.993851,97.579605 133.997482,99.582260 
	C128.056213,100.045151 122.117531,100.105484 115.342285,100.073921 
	C113.677628,98.098473 112.849533,96.214928 112.021446,94.331375 
	C119.034454,94.291603 126.047462,94.251823 133.520935,94.295738 
z"/>
<path fill="#4BB4A9" opacity="1.000000" stroke="none" 
	d="
M111.689484,94.341492 
	C112.849533,96.214928 113.677628,98.098473 114.891998,100.049484 
	C110.398880,104.994438 105.519485,109.871941 100.315056,114.425079 
	C99.610870,112.254051 99.231728,110.407394 98.852585,108.560730 
	C103.020897,103.824356 107.189209,99.087982 111.689484,94.341492 
z"/>
<path fill="#30B6BE" opacity="1.000000" stroke="none" 
	d="
M160.551910,115.493118 
	C161.003906,117.184929 161.002975,118.746887 161.003052,120.708015 
	C154.320160,121.158844 147.636246,121.210495 140.516388,120.801956 
	C140.336090,118.768654 140.591751,117.195549 140.847412,115.622437 
	C147.264603,115.536041 153.681778,115.449654 160.551910,115.493118 
z"/>
<path fill="#54B6A5" opacity="1.000000" stroke="none" 
	d="
M98.520836,108.715637 
	C99.231728,110.407394 99.610870,112.254051 99.984497,114.502136 
	C93.944000,116.634140 87.909012,118.364731 81.436829,120.032654 
	C81.332466,118.263428 81.665298,116.556862 81.997772,114.471207 
	C87.394646,112.351585 92.791870,110.611069 98.520836,108.715637 
z"/>
<path fill="#5BB69F" opacity="1.000000" stroke="none" 
	d="
M69.204918,104.398483 
	C69.292664,102.643501 69.620888,101.143044 69.998543,99.258896 
	C72.902130,98.990074 75.794350,98.864204 78.596619,99.307266 
	C80.367676,99.587280 82.771713,100.290398 83.489540,101.582672 
	C84.234192,102.923248 83.919891,105.767601 82.899559,106.910492 
	C81.917480,108.010529 79.296921,108.382500 77.652222,107.993134 
	C74.812202,107.320801 72.170380,105.811279 69.204918,104.398483 
z"/>
<path fill="#5AB59F" opacity="1.000000" stroke="none" 
	d="
M70.544418,62.420212 
	C70.112083,60.941326 70.049355,59.361603 69.973602,57.310989 
	C72.526718,55.798317 75.018059,54.344078 77.685394,53.860382 
	C79.450966,53.540215 82.096306,54.039448 83.185158,55.232727 
	C84.140724,56.279938 84.232811,59.436268 83.332886,60.510975 
	C82.278763,61.769829 79.769379,62.038330 77.835083,62.272560 
	C75.559540,62.548107 73.223709,62.325794 70.544418,62.420212 
z"/>
<path fill="#31AEB5" opacity="1.000000" stroke="none" 
	d="
M140.437103,83.804504 
	C139.984634,82.062096 139.993683,80.407845 140.002670,78.336517 
	C145.026337,77.862823 150.050079,77.806190 155.535645,77.825066 
	C156.000427,79.567688 156.003372,81.234810 156.010498,83.314644 
	C150.976013,83.782463 145.937302,83.837563 140.437103,83.804504 
z"/>
<path fill="#37A8AB" opacity="1.000000" stroke="none" 
	d="
M140.490753,115.545441 
	C140.591751,117.195549 140.336090,118.768654 140.052414,120.741257 
	C137.494049,122.012230 134.025955,121.021744 132.643173,124.939606 
	C131.910019,120.384972 131.452606,115.610031 130.993027,110.427246 
	C133.733841,112.347145 135.261353,116.714363 140.490753,115.545441 
z"/>
<path fill="#49B3A9" opacity="1.000000" stroke="none" 
	d="
M112.537788,77.841003 
	C112.983223,79.502777 112.969757,81.084175 112.910004,83.152939 
	C108.543556,83.725449 104.223389,83.810593 99.447899,83.814911 
	C98.995232,82.069092 98.997894,80.404106 99.000481,78.319000 
	C103.359901,77.852806 107.719391,77.806717 112.537788,77.841003 
z"/>
<path fill="#3DACAB" opacity="1.000000" stroke="none" 
	d="
M124.419624,65.065910 
	C124.009682,63.451061 124.024239,61.911587 124.075699,59.896492 
	C125.833458,59.332832 127.554306,59.244797 129.648697,59.243233 
	C130.014359,60.947365 130.006470,62.565025 130.001190,64.589531 
	C128.283905,65.044685 126.564011,65.092987 124.419624,65.065910 
z"/>
<path fill="#F3FBFC" opacity="1.000000" stroke="none" 
	d="
M358.411652,78.547150 
	C364.042389,81.846001 364.963409,91.130188 360.176239,94.715721 
	C357.204865,96.941238 353.131256,97.235298 351.481445,93.879250 
	C349.914185,90.691124 349.695862,86.354683 350.260925,82.738228 
	C350.841003,79.025787 354.314392,77.865913 358.411652,78.547150 
z"/>
<path fill="#EDF9FA" opacity="1.000000" stroke="none" 
	d="
M410.189117,90.487091 
	C413.288422,88.954025 416.231842,87.805168 419.175293,86.656311 
	C419.682678,87.071121 420.190063,87.485924 420.697479,87.900726 
	C419.862183,90.122108 419.542053,92.844116 418.026123,94.404030 
	C416.846100,95.618263 413.974731,96.065147 412.242767,95.549866 
	C411.139893,95.221756 410.745361,92.512733 410.189117,90.487091 
z"/>
<path fill="#E4F6F8" opacity="1.000000" stroke="none" 
	d="
M333.479736,79.361755 
	C334.488678,80.952637 335.197113,82.320900 336.271973,84.396851 
	C331.380371,84.396851 327.434357,84.396851 323.417725,84.396851 
	C324.855072,78.656006 327.517303,77.284515 333.479736,79.361755 
z"/>
<path fill="#0C1E36" opacity="1.000000" stroke="none" 
	d="
M191.819122,41.678726 
	C189.678421,43.004417 187.649826,44.643330 185.621368,44.643154 
	C184.468842,44.643055 182.607498,42.058456 182.386185,40.455421 
	C182.205704,39.148235 183.658722,37.079208 184.962250,36.209644 
	C188.159683,34.076687 191.166428,36.398193 191.819122,41.678726 
z"/>
<path fill="#0C1D35" opacity="1.000000" stroke="none" 
	d="
M183.637177,75.992851 
	C185.174316,77.973015 186.865356,79.782738 187.242462,81.834023 
	C187.416641,82.781487 185.128326,85.019508 183.769226,85.191383 
	C182.195831,85.390335 179.899353,84.401497 178.829803,83.148796 
	C176.294556,80.179428 178.358200,77.010918 183.637177,75.992851 
z"/>
<path fill="#0C1E37" opacity="1.000000" stroke="none" 
	d="
M185.525269,122.829727 
	C184.205276,120.790413 182.478119,118.840683 182.579453,116.991135 
	C182.649216,115.717949 185.133682,113.884750 186.762314,113.605721 
	C188.093735,113.377602 190.233063,114.722374 191.177933,115.992119 
	C193.642258,119.303795 191.027832,122.625282 185.525269,122.829727 
z"/>
<path fill="#0E1E35" opacity="1.000000" stroke="none" 
	d="
M124.568039,113.537109 
	C126.126587,115.548782 128.010864,117.317024 128.303314,119.317917 
	C128.455307,120.357811 125.911087,122.622871 124.372513,122.841705 
	C122.876404,123.054497 120.542313,121.766373 119.578018,120.419846 
	C117.526627,117.555321 119.609222,114.657578 124.568039,113.537109 
z"/>
<path fill="#0D1E35" opacity="1.000000" stroke="none" 
	d="
M124.339455,45.311691 
	C122.301392,43.791393 119.640831,42.329060 119.238113,40.396286 
	C118.965233,39.086651 121.865227,37.115917 123.673050,35.321396 
	C125.569221,36.872749 128.065018,38.380142 128.398163,40.268982 
	C128.640152,41.641048 126.021591,43.517658 124.339455,45.311691 
z"/>
<path fill="#0D1D35" opacity="1.000000" stroke="none" 
	d="
M147.621338,57.036797 
	C152.807724,60.920834 152.902130,62.593666 148.270142,66.801056 
	C144.787521,67.027534 142.253342,65.783989 142.002930,62.382942 
	C141.753693,58.998039 143.894821,57.270401 147.621338,57.036797 
z"/>
<path fill="#0F1D33" opacity="1.000000" stroke="none" 
	d="
M82.057358,85.209831 
	C78.115646,85.996719 75.400070,84.562691 75.285995,80.792381 
	C75.180000,77.289360 77.670082,75.662552 81.608429,75.955566 
	C85.363541,78.871178 86.458237,81.850197 82.057358,85.209831 
z"/>
<path fill="#0C1D35" opacity="1.000000" stroke="none" 
	d="
M146.354340,102.847824 
	C140.561874,99.218330 140.388870,96.684319 145.663879,92.875793 
	C147.909561,94.366524 149.818375,96.011215 151.727173,97.655907 
	C150.053970,99.367897 148.380768,101.079887 146.354340,102.847824 
z"/>
</svg>