<?xml version="1.0" encoding="UTF-8" standalone="no" ?>
<!DOCTYPE svg PUBLIC "-//W3C//DTD SVG 1.1//EN" "http://www.w3.org/Graphics/SVG/1.1/DTD/svg11.dtd">
<svg xmlns="http://www.w3.org/2000/svg" xmlns:xlink="http://www.w3.org/1999/xlink" version="1.1" width="1080" height="1080" viewBox="0 0 1080 1080" xml:space="preserve">
<desc>Created with Fabric.js 5.2.4</desc>
<defs>
</defs>
<rect x="0" y="0" width="100%" height="100%" fill="transparent"></rect>
<g transform="matrix(1 0 0 1 540 540)" id="8900a814-3ae5-4aed-be7d-d0f2c16e7c1b"  >
</g>
<g transform="matrix(1 0 0 1 540 540)" id="09e003b6-4221-4ab1-bbbc-4385ecfc1900"  >
<rect style="stroke: none; stroke-width: 1; stroke-dasharray: none; stroke-linecap: butt; stroke-dashoffset: 0; stroke-linejoin: miter; stroke-miterlimit: 4; fill: rgb(255,255,255); fill-rule: nonzero; opacity: 1; visibility: hidden;" vector-effect="non-scaling-stroke"  x="-540" y="-540" rx="0" ry="0" width="1080" height="1080" />
</g>
<g transform="matrix(40.3 0 0 40.3 540 540)"  >
<path style="stroke: none; stroke-width: 1; stroke-dasharray: none; stroke-linecap: butt; stroke-dashoffset: 0; stroke-linejoin: miter; stroke-miterlimit: 4; fill: none; fill-rule: nonzero; opacity: 1;" vector-effect="non-scaling-stroke"  transform=" translate(-12, -12)" d="M 0 0 L 24 0 L 24 24 L 0 24 z" stroke-linecap="round" />
</g>
<g transform="matrix(1 0 0 1 540 540)"  >
<path style="stroke: none; stroke-width: 1; stroke-dasharray: none; stroke-linecap: butt; stroke-dashoffset: 0; stroke-linejoin: miter; stroke-miterlimit: 4; fill: none; fill-rule: nonzero; opacity: 1;" vector-effect="non-scaling-stroke"  transform=" translate(-12, -12)" d="M 0 0 L 24 0 L 24 24 L 0 24 z" stroke-linecap="round" />
</g>
<g transform="matrix(49.28 0 0 49.28 540 540)"  >
<path style="stroke: none; stroke-width: 1; stroke-dasharray: none; stroke-linecap: butt; stroke-dashoffset: 0; stroke-linejoin: miter; stroke-miterlimit: 4; fill: rgb(0,163,108); fill-rule: nonzero; opacity: 1;" vector-effect="non-scaling-stroke"  transform=" translate(-11.97, -11.98)" d="M 22.162 5.656 C 21.398556959504724 5.993693727135455 20.588960092868493 6.215473385023314 19.759999999999998 6.313999999999999 C 20.633750816441303 5.7914333181844855 21.287705496791606 4.969014225613506 21.6 3.9999999999999982 C 20.78 4.4879999999999995 19.881 4.83 18.944000000000003 5.015 C 17.649849517951953 3.630319513014916 15.58627756817851 3.289089033704493 13.915266271847514 4.183452924275137 C 12.24425497551652 5.077816814845781 11.383628805241948 6.984145754703936 11.818000000000001 8.829 C 8.455022540496383 8.66044326618827 5.321743889569432 7.07199457656521 3.198000000000004 4.4590000000000005 C 2.8262901166849974 5.097450316677418 2.6309551443289956 5.82322672456553 2.6320000000000023 6.562 C 2.6320000000000023 8.012 3.3700000000000023 9.293000000000001 4.492000000000003 10.043000000000001 C 3.828008811282517 10.022096215410333 3.178632397810508 9.842780553189709 2.598000000000002 9.520000000000001 L 2.5980000000000025 9.572000000000001 C 2.598413191040207 11.563035792606044 4.001514416772668 13.278123162718959 5.953000000000004 13.673000000000002 C 5.336615031551707 13.840036900776544 4.6903066854722955 13.864658171103379 4.063000000000002 13.745000000000001 C 4.610126980614042 15.449183056075716 6.1804514244316335 16.61677776027078 7.970000000000001 16.65 C 6.217941581392048 18.026019381289057 3.9907399971472457 18.64910339742732 1.778999999999999 18.381999999999998 C 3.6906977852113725 19.611432782022543 5.916096817621451 20.264123917893205 8.189000000000004 20.261999999999997 C 15.882 20.261999999999997 20.089 13.888999999999996 20.089 8.361999999999997 C 20.089 8.181999999999997 20.084 7.9999999999999964 20.075999999999997 7.8219999999999965 C 20.89486411776936 7.230167660115504 21.601598731065344 6.4970193909320795 22.162999999999997 5.656999999999995 z" stroke-linecap="round" />
</g>
</svg>